<?xml version="1.0" encoding="utf-8"?><svg xmlns="http://www.w3.org/2000/svg" xmlns:xlink="http://www.w3.org/1999/xlink"><symbol fill="none" viewBox="0 0 16 17" id="arrow-down" xmlns="http://www.w3.org/2000/svg"><rect y=".5" width="16" height="16" rx="8" fill="#fff"/><path fill-rule="evenodd" clip-rule="evenodd" d="M8 5c-.316 0-.571.224-.571.5v5.793L4.975 9.146a.63.63 0 0 0-.808 0 .457.457 0 0 0 0 .708l3.429 3a.63.63 0 0 0 .808 0l3.429-3a.457.457 0 0 0 0-.708.63.63 0 0 0-.809 0l-2.453 2.147V5.5c0-.276-.255-.5-.571-.5Z" fill="#20438F"/></symbol><symbol fill="none" viewBox="0 0 24 24" id="attention" xmlns="http://www.w3.org/2000/svg"><g clip-path="url(#aba)"><path d="M12 22c5.5 0 10-4.5 10-10S17.5 2 12 2 2 6.5 2 12s4.5 10 10 10Z" fill="#20438F"/><path d="M12 13V8" stroke="#fff" stroke-width="1.5" stroke-linecap="round" stroke-linejoin="round"/><path d="M12 16.998h-.009" stroke="#fff" stroke-width="2" stroke-linecap="round" stroke-linejoin="round"/></g><defs><clipPath id="aba"><path fill="#fff" d="M0 0h24v24H0z"/></clipPath></defs></symbol><symbol fill="none" viewBox="0 0 24 24" id="check" xmlns="http://www.w3.org/2000/svg"><rect x="2" y="2" width="20" height="20" rx="10" fill="#20438F"/><path d="m17 9-6.875 6.875L7 12.75" stroke="#fff" stroke-width="1.5" stroke-linecap="round" stroke-linejoin="round"/></symbol><symbol fill="none" viewBox="0 0 24 25" id="delivery" xmlns="http://www.w3.org/2000/svg"><path d="M13 15.25h-1c-.41 0-.75-.34-.75-.75s.34-.75.75-.75h1c.69 0 1.25-.56 1.25-1.25V3.25H6c-1.18 0-2.26.64-2.84 1.67-.2.36-.66.49-1.02.29a.753.753 0 0 1-.29-1.02C2.69 2.69 4.28 1.75 6 1.75h9c.41 0 .75.34.75.75v10c0 1.52-1.23 2.75-2.75 2.75Z" fill="#0D4587"/><path d="M19 21.25h-1c-.41 0-.75-.34-.75-.75a1.25 1.25 0 0 0-2.5 0c0 .41-.34.75-.75.75h-4c-.41 0-.75-.34-.75-.75a1.25 1.25 0 0 0-2.5 0c0 .41-.34.75-.75.75H5c-2.07 0-3.75-1.68-3.75-3.75 0-.41.34-.75.75-.75s.75.34.75.75c0 1.24 1.01 2.25 2.25 2.25h.35c.33-1.15 1.39-2 2.65-2s2.32.85 2.65 2h2.71c.33-1.15 1.39-2 2.65-2s2.32.85 2.65 2H19c1.24 0 2.25-1.01 2.25-2.25v-2.25H19c-.96 0-1.75-.79-1.75-1.75v-3c0-.96.78-1.75 1.75-1.75l-1.07-1.87c-.22-.39-.64-.63-1.09-.63h-1.09v6.25c0 1.52-1.23 2.75-2.75 2.75h-1c-.41 0-.75-.34-.75-.75s.34-.75.75-.75h1c.69 0 1.25-.56 1.25-1.25v-7c0-.41.34-.75.75-.75h1.84c.99 0 1.9.53 2.39 1.39l1.71 2.99c.13.23.13.52 0 .75-.13.23-.38.37-.65.37H19c-.14 0-.25.11-.25.25v3c0 .14.11.25.25.25h3c.41 0 .75.34.75.75v3c0 2.07-1.68 3.75-3.75 3.75Z" fill="#0D4587"/><path d="M8 23.25c-1.52 0-2.75-1.23-2.75-2.75S6.48 17.75 8 17.75s2.75 1.23 2.75 2.75S9.52 23.25 8 23.25Zm0-4a1.25 1.25 0 1 0 0 2.5 1.25 1.25 0 0 0 0-2.5Zm8 4c-1.52 0-2.75-1.23-2.75-2.75s1.23-2.75 2.75-2.75 2.75 1.23 2.75 2.75-1.23 2.75-2.75 2.75Zm0-4a1.25 1.25 0 1 0 0 2.5 1.25 1.25 0 0 0 0-2.5Zm6-4h-3c-.96 0-1.75-.79-1.75-1.75v-3c0-.96.79-1.75 1.75-1.75h1.29c.27 0 .52.14.65.38l1.71 3c.06.11.1.24.1.37v2c0 .41-.34.75-.75.75Zm-3-5c-.14 0-.25.11-.25.25v3c0 .14.11.25.25.25h2.25V12.7l-1.4-2.45H19Zm-11-1H2c-.41 0-.75-.34-.75-.75s.34-.75.75-.75h6c.41 0 .75.34.75.75s-.34.75-.75.75Zm-2 3H2c-.41 0-.75-.34-.75-.75s.34-.75.75-.75h4c.41 0 .75.34.75.75s-.34.75-.75.75Zm-2 3H2c-.41 0-.75-.34-.75-.75s.34-.75.75-.75h2c.41 0 .75.34.75.75s-.34.75-.75.75Z" fill="#0D4587"/></symbol><symbol fill="none" viewBox="0 0 32 32" id="excel" xmlns="http://www.w3.org/2000/svg"><path fill-rule="evenodd" clip-rule="evenodd" d="M28.781 4.405h-10.13V2.018L2 4.588v22.527l16.651 2.868v-3.538h10.13A1.162 1.162 0 0 0 30 25.35V5.5a1.162 1.162 0 0 0-1.219-1.095Zm.16 21.126H18.617l-.017-1.889h2.487v-2.2h-2.506l-.012-1.3h2.518v-2.2H18.55l-.012-1.3h2.549v-2.2H18.53v-1.3h2.557v-2.2H18.53v-1.3h2.557v-2.2H18.53v-2h10.411v20.09Z" fill="#20744A"/><path d="M26.81 7.439h-4.323v2.2h4.323v-2.2Zm0 3.501h-4.323v2.2h4.323v-2.2Zm0 3.5h-4.323v2.2h4.323v-2.2Zm0 3.502h-4.323v2.2h4.323v-2.2Zm0 3.501h-4.323v2.2h4.323v-2.2Z" fill="#20744A"/><path fill-rule="evenodd" clip-rule="evenodd" d="m6.347 10.673 2.146-.123 1.35 3.709 1.593-3.862 2.146-.123-2.606 5.266 2.606 5.279-2.269-.153-1.532-4.024-1.533 3.87-2.085-.183 2.422-4.663-2.238-4.993Z" fill="#fff"/></symbol><symbol fill="none" viewBox="0 0 36 36" id="google" xmlns="http://www.w3.org/2000/svg"><g clip-path="url(#afa)"><path d="M17.963 35.927c9.921 0 17.964-8.043 17.964-17.964C35.927 8.043 27.884 0 17.963 0 8.043 0 0 8.042 0 17.963c0 9.921 8.042 17.964 17.963 17.964Z" fill="#D9D9D9"/><path fill-rule="evenodd" clip-rule="evenodd" d="M17.55 8.062c-1.889.211-3.785.99-5.263 2.16-.52.412-1.351 1.257-1.744 1.772a9.85 9.85 0 0 0 .794 12.924c1.558 1.59 3.499 2.596 5.724 2.967.675.113 2.033.15 2.795.077 3.965-.38 6.78-2.57 8.03-6.246.566-1.665.752-3.504.511-5.053l-.064-.412h-9.645l.014 1.902.014 1.902 2.778.014 2.777.014-.102.29c-.28.8-.969 1.811-1.582 2.325-1.213 1.016-2.832 1.498-4.468 1.33-2.987-.305-5.299-2.59-5.553-5.49-.292-3.311 2.138-6.191 5.527-6.552 1.403-.149 2.806.2 4.032 1.004l.6.393 1.422-1.395 1.422-1.394-.307-.26c-.168-.143-.581-.44-.917-.66-1.96-1.289-4.435-1.876-6.795-1.612Z" fill="#fff"/></g><defs><clipPath id="afa"><path fill="#fff" d="M0 0h36v36H0z"/></clipPath></defs></symbol><symbol fill="none" viewBox="0 0 28 21" id="mastercard" xmlns="http://www.w3.org/2000/svg"><g clip-path="url(#aga)"><path d="M5.004 20.622v-1.327c0-.509-.33-.84-.897-.84-.283 0-.59.088-.802.375-.166-.243-.402-.376-.756-.376-.236 0-.472.066-.66.31v-.266h-.496v2.124h.495V19.45c0-.376.213-.553.543-.553.33 0 .496.199.496.553v1.172h.496V19.45c0-.376.236-.553.543-.553.33 0 .495.199.495.553v1.172h.543Zm7.341-2.124h-.802v-.641h-.496v.641H10.6v.42h.448v.974c0 .487.213.775.78.775.212 0 .448-.067.613-.155l-.142-.399a.817.817 0 0 1-.425.111c-.236 0-.33-.133-.33-.354v-.951h.803v-.42Zm4.202-.044a.675.675 0 0 0-.59.31v-.266h-.496v2.124h.496v-1.194c0-.354.165-.553.472-.553.095 0 .213.022.307.044l.142-.443c-.095-.022-.236-.022-.33-.022Zm-6.35.221c-.236-.155-.566-.22-.92-.22-.567 0-.944.265-.944.685 0 .354.283.553.779.62l.236.022c.26.044.4.11.4.22 0 .156-.188.266-.518.266s-.59-.11-.756-.22l-.236.353c.26.177.614.266.968.266.66 0 1.039-.288 1.039-.686 0-.376-.307-.576-.78-.642l-.235-.022c-.213-.022-.378-.066-.378-.2 0-.154.165-.242.425-.242.283 0 .566.11.708.177l.212-.377Zm13.172-.22a.675.675 0 0 0-.59.309v-.266h-.496v2.124h.496v-1.194c0-.354.165-.553.472-.553.095 0 .212.022.307.044l.142-.443c-.095-.022-.236-.022-.33-.022Zm-6.326 1.105c0 .642.472 1.107 1.204 1.107.33 0 .566-.067.802-.244l-.236-.376a.994.994 0 0 1-.59.2c-.401 0-.684-.266-.684-.687 0-.398.283-.663.684-.685.213 0 .402.066.59.199l.236-.377c-.236-.177-.472-.243-.802-.243-.732 0-1.204.465-1.204 1.106Zm4.58 0v-1.062h-.496v.266c-.166-.2-.402-.31-.708-.31-.638 0-1.134.465-1.134 1.106 0 .642.496 1.107 1.134 1.107.33 0 .566-.111.708-.31v.265h.495V19.56Zm-1.818 0c0-.376.26-.685.684-.685a.66.66 0 0 1 .685.685.672.672 0 0 1-.685.686c-.425-.022-.684-.31-.684-.686Zm-5.925-1.106c-.661 0-1.133.443-1.133 1.106 0 .664.472 1.107 1.156 1.107.33 0 .661-.089.921-.288l-.236-.332a1.176 1.176 0 0 1-.661.221c-.307 0-.614-.132-.684-.509h1.675v-.177c.024-.685-.4-1.128-1.038-1.128Zm0 .398c.307 0 .52.177.566.51h-1.18c.047-.288.26-.51.614-.51Zm12.298.708v-1.902h-.496v1.106c-.165-.2-.4-.31-.708-.31-.637 0-1.133.465-1.133 1.106 0 .642.496 1.107 1.133 1.107.33 0 .567-.111.708-.31v.265h.496V19.56Zm-1.818 0c0-.376.26-.685.685-.685a.66.66 0 0 1 .685.685.672.672 0 0 1-.685.686c-.425-.022-.685-.31-.685-.686Zm-16.57 0v-1.062h-.496v.266c-.165-.2-.401-.31-.708-.31-.638 0-1.133.465-1.133 1.106 0 .642.495 1.107 1.133 1.107.33 0 .566-.111.708-.31v.265h.496V19.56Zm-1.842 0c0-.376.26-.685.685-.685a.66.66 0 0 1 .685.685.672.672 0 0 1-.685.686c-.425-.022-.685-.31-.685-.686Z" fill="#000"/><path d="M17.468 2.37h-7.436v12.522h7.436V2.37Z" fill="#FF5F00"/><path d="M10.504 8.631c0-2.544 1.275-4.8 3.234-6.261A8.809 8.809 0 0 0 8.498.667C3.8.667 0 4.228 0 8.63c0 4.403 3.8 7.965 8.498 7.965a8.81 8.81 0 0 0 5.24-1.704c-1.959-1.438-3.234-3.717-3.234-6.26Z" fill="#EB001B"/><path d="M27.5 8.631c0 4.403-3.8 7.965-8.498 7.965a8.81 8.81 0 0 1-5.24-1.704c1.983-1.46 3.234-3.717 3.234-6.26 0-2.545-1.275-4.802-3.234-6.262a8.809 8.809 0 0 1 5.24-1.703C23.7.667 27.5 4.25 27.5 8.63Z" fill="#F79E1B"/></g><defs><clipPath id="aga"><path fill="#fff" transform="translate(0 .667)" d="M0 0h27.5v20H0z"/></clipPath></defs></symbol><symbol fill="none" viewBox="0 0 69 20" id="mir" xmlns="http://www.w3.org/2000/svg"><g clip-path="url(#aha)" fill-rule="evenodd" clip-rule="evenodd"><path d="M18.593 0v.009c-.008 0-2.695-.009-3.411 2.563-.657 2.358-2.508 8.87-2.559 9.049h-.512s-1.893-6.657-2.558-9.058C8.836-.009 6.14 0 6.14 0H0v19.567h6.14V7.947h.513l3.582 11.62h4.264l3.583-11.612h.511v11.612h6.141V0h-6.14Zm22.432 0s-1.8.162-2.644 2.05l-4.35 9.57h-.512V0h-6.14v19.567h5.799s1.885-.17 2.73-2.05l4.264-9.57h.512v11.62h6.14V0h-5.8Zm8.529 8.886v10.681h6.14v-6.238h6.653c2.9 0 5.357-1.854 6.27-4.443H49.553Z" fill="#006845"/><path d="M62.347 0H48.692a9.821 9.821 0 0 0 7.08 7.69c.818.222 1.68.342 2.567.342h10.525A6.58 6.58 0 0 0 69 6.665C69 2.982 66.023 0 62.347 0Z" fill="#00A3D0"/></g><defs><clipPath id="aha"><path fill="#fff" d="M0 0h69v19.567H0z"/></clipPath></defs></symbol><symbol fill="none" viewBox="0 0 16 16" id="sUserContent-icon-1" xmlns="http://www.w3.org/2000/svg"><path d="M8.013 1.94c-2.207 0-4 1.793-4 4v1.927c0 .406-.173 1.026-.38 1.373l-.767 1.273c-.473.787-.146 1.66.72 1.954 2.874.96 5.974.96 8.847 0a1.335 1.335 0 0 0 .72-1.954l-.767-1.273c-.2-.347-.373-.967-.373-1.373V5.94c0-2.2-1.8-4-4-4Z" stroke="#fff" stroke-width="1.5" stroke-miterlimit="10" stroke-linecap="round"/><path d="M9.247 2.133a4.503 4.503 0 0 0-2.467 0 1.324 1.324 0 0 1 2.467 0Z" stroke="#fff" stroke-width="1.5" stroke-miterlimit="10" stroke-linecap="round" stroke-linejoin="round"/><path d="M10.013 12.707c0 1.1-.9 2-2 2a2.007 2.007 0 0 1-2-2" stroke="#fff" stroke-width="1.5" stroke-miterlimit="10"/></symbol><symbol fill="none" viewBox="0 0 16 16" id="sUserContent-icon-2" xmlns="http://www.w3.org/2000/svg"><g stroke="#fff" stroke-width="1.5" stroke-miterlimit="10" stroke-linecap="round" stroke-linejoin="round"><path d="M8 10a2 2 0 1 0 0-4 2 2 0 0 0 0 4Z"/><path d="M1.333 8.586V7.413A1.27 1.27 0 0 1 2.6 6.146c1.206 0 1.7-.853 1.093-1.9-.347-.6-.14-1.38.467-1.726l1.153-.66a1.113 1.113 0 0 1 1.52.4l.073.126c.6 1.047 1.587 1.047 2.194 0l.073-.126a1.113 1.113 0 0 1 1.52-.4l1.153.66c.607.346.814 1.126.467 1.726-.607 1.047-.113 1.9 1.093 1.9a1.27 1.27 0 0 1 1.267 1.267v1.173a1.27 1.27 0 0 1-1.267 1.267c-1.206 0-1.7.853-1.093 1.9.347.607.14 1.38-.467 1.727l-1.153.66a1.113 1.113 0 0 1-1.52-.4l-.073-.127c-.6-1.047-1.587-1.047-2.194 0l-.073.127a1.113 1.113 0 0 1-1.52.4l-1.153-.66a1.266 1.266 0 0 1-.467-1.727c.607-1.047.113-1.9-1.093-1.9a1.27 1.27 0 0 1-1.267-1.267Z"/></g></symbol><symbol fill="none" viewBox="0 0 16 16" id="sUserContent-icon-3" xmlns="http://www.w3.org/2000/svg"><path d="M11.633 15.166c-.753 0-1.547-.18-2.367-.526-.8-.34-1.606-.807-2.393-1.374a20.805 20.805 0 0 1-2.247-1.913 19.913 19.913 0 0 1-1.913-2.24 12.44 12.44 0 0 1-1.36-2.373c-.347-.827-.52-1.627-.52-2.38 0-.52.093-1.014.273-1.474A3.56 3.56 0 0 1 2 1.593c.513-.507 1.1-.76 1.726-.76.26 0 .527.06.754.167.26.12.48.3.64.54l1.546 2.18c.14.193.247.38.32.566.087.2.134.4.134.594 0 .253-.074.5-.214.733-.1.18-.253.373-.446.567l-.454.473c.007.02.014.033.02.047.08.14.24.38.547.74.327.373.633.713.94 1.026.393.387.72.694 1.027.947.38.32.626.48.773.553L9.3 10l.486-.48a2.49 2.49 0 0 1 .6-.46c.367-.227.834-.267 1.3-.074.174.074.36.174.56.314l2.214 1.573c.246.167.426.38.533.633.1.254.147.487.147.72 0 .32-.074.64-.214.94-.14.3-.313.56-.533.8-.38.42-.793.72-1.273.914a3.95 3.95 0 0 1-1.487.286ZM3.726 1.833c-.366 0-.706.16-1.033.48-.307.287-.52.6-.653.94-.14.347-.207.713-.207 1.107 0 .62.147 1.293.44 1.986.3.707.72 1.44 1.253 2.174.534.733 1.14 1.446 1.807 2.12a18.77 18.77 0 0 0 2.127 1.813c.72.527 1.46.953 2.193 1.26 1.14.487 2.207.6 3.087.233.34-.14.64-.353.913-.66a2.16 2.16 0 0 0 .373-.56c.08-.166.12-.34.12-.513a.796.796 0 0 0-.073-.333.504.504 0 0 0-.187-.2l-2.213-1.574a1.91 1.91 0 0 0-.367-.206c-.146-.06-.206-.12-.433.02a1.52 1.52 0 0 0-.387.3l-.506.5a.95.95 0 0 1-.967.2l-.18-.08a5.685 5.685 0 0 1-.947-.674A20.88 20.88 0 0 1 6.8 9.16a23.286 23.286 0 0 1-.994-1.08c-.313-.367-.54-.68-.68-.94l-.08-.2a1.244 1.244 0 0 1-.053-.334c0-.24.087-.453.253-.62l.5-.52a1.93 1.93 0 0 0 .3-.373.428.428 0 0 0 .074-.227.62.62 0 0 0-.054-.213 1.913 1.913 0 0 0-.213-.353L4.306 2.113a.614.614 0 0 0-.246-.207.835.835 0 0 0-.334-.073ZM9.3 10.006l-.107.454.18-.467c-.033-.007-.06 0-.073.013ZM12.333 6.5a.504.504 0 0 1-.5-.5c0-.24-.24-.74-.64-1.166-.393-.42-.826-.667-1.193-.667a.504.504 0 0 1-.5-.5c0-.273.227-.5.5-.5.647 0 1.327.347 1.92.98.553.593.913 1.32.913 1.853 0 .274-.226.5-.5.5Zm2.334 0a.504.504 0 0 1-.5-.5c0-2.3-1.867-4.167-4.167-4.167a.504.504 0 0 1-.5-.5c0-.273.227-.5.5-.5A5.175 5.175 0 0 1 15.167 6c0 .273-.227.5-.5.5Z" fill="#fff"/></symbol><symbol fill="none" viewBox="0 0 59 20" id="visa" xmlns="http://www.w3.org/2000/svg"><g clip-path="url(#ala)"><path d="M38.364.666c-4.183 0-7.92 2.158-7.92 6.146 0 4.574 6.627 4.888 6.627 7.186 0 .968-1.113 1.832-3.015 1.832a10.048 10.048 0 0 1-4.716-1.21l-.863 4.024a14.778 14.778 0 0 0 5.411 1.022c4.574 0 8.18-2.262 8.18-6.32 0-4.83-6.658-5.138-6.658-7.27 0-.757.91-1.582 2.81-1.582a9.577 9.577 0 0 1 3.886.88l.845-3.887a12.691 12.691 0 0 0-4.587-.82ZM.102.96 0 1.546c1.141.22 2.26.542 3.344.96 2.045.732 2.186 1.16 2.529 2.487l3.744 14.372h5.021L22.363.96h-4.999l-4.968 12.513-2.03-10.606C10.182 1.653 9.232.96 8.096.96H.102Zm24.283 0-3.929 18.406h4.772L29.142.96h-4.77.013Zm26.636 0c-1.152 0-1.76.613-2.208 1.688l-6.998 16.718h4.998l.968-2.787h6.1l.589 2.787h4.419L55.026.96h-4.005Zm.652 4.977 1.483 6.905h-3.975l2.499-6.905h-.007Z" fill="#312A5E"/></g><defs><clipPath id="ala"><path fill="#fff" transform="translate(0 .667)" d="M0 0h58.9v19H0z"/></clipPath></defs></symbol><symbol fill="none" viewBox="0 0 36 36" id="vk" xmlns="http://www.w3.org/2000/svg"><g clip-path="url(#ama)"><path d="M17.963 35.927c9.921 0 17.964-8.043 17.964-17.964C35.927 8.043 27.884 0 17.963 0 8.043 0 0 8.042 0 17.963c0 9.921 8.042 17.964 17.963 17.964Z" fill="#D9D9D9"/><path d="M19.39 24.488C12.559 24.488 8.662 19.805 8.5 12h3.422c.112 5.72 2.635 8.117 4.633 8.642v-8.63h3.222v4.933c1.973-.212 4.046-2.46 4.745-4.933h3.216a9.516 9.516 0 0 1-4.37 6.245A9.86 9.86 0 0 1 28.5 24.5h-3.553a6.163 6.163 0 0 0-5.17-4.459V24.5l-.387-.013Z" fill="#fff"/></g><defs><clipPath id="ama"><path fill="#fff" d="M0 0h36v36H0z"/></clipPath></defs></symbol><symbol fill="none" viewBox="0 0 36 36" id="yandex" xmlns="http://www.w3.org/2000/svg"><g clip-path="url(#ana)"><path d="M18 35.964c9.921 0 17.964-8.043 17.964-17.964C35.964 8.08 27.92.037 18 .037 8.08.037.037 8.08.037 18 .037 27.921 8.08 35.964 18 35.964Z" fill="#D9D9D9"/><path d="M24.129 28h-3.322V11.572h-1.48c-2.712 0-4.132 1.356-4.132 3.38 0 2.297.98 3.361 3.007 4.717l1.67 1.126-4.8 7.202H11.5l4.32-6.43c-2.484-1.774-3.882-3.506-3.882-6.43 0-3.652 2.546-6.137 7.367-6.137h4.802v18.994h.022V28Z" fill="#fff"/></g><defs><clipPath id="ana"><path fill="#fff" d="M0 0h36v36H0z"/></clipPath></defs></symbol></svg>