<?xml version="1.0" encoding="utf-8"?><svg xmlns="http://www.w3.org/2000/svg" xmlns:xlink="http://www.w3.org/1999/xlink"><symbol fill="none" viewBox="0 0 16 17" id="arrow-down" xmlns="http://www.w3.org/2000/svg"><rect y=".5" width="16" height="16" rx="8" fill="#fff"/><path fill-rule="evenodd" clip-rule="evenodd" d="M8 5c-.316 0-.571.224-.571.5v5.793L4.975 9.146a.63.63 0 0 0-.808 0 .457.457 0 0 0 0 .708l3.429 3a.63.63 0 0 0 .808 0l3.429-3a.457.457 0 0 0 0-.708.63.63 0 0 0-.809 0l-2.453 2.147V5.5c0-.276-.255-.5-.571-.5Z" fill="#20438F"/></symbol><symbol fill="none" viewBox="0 0 24 24" id="attention" xmlns="http://www.w3.org/2000/svg"><g clip-path="url(#ba)"><path d="M12 22c5.5 0 10-4.5 10-10S17.5 2 12 2 2 6.5 2 12s4.5 10 10 10Z" fill="#20438F"/><path d="M12 13V8" stroke="#fff" stroke-width="1.5" stroke-linecap="round" stroke-linejoin="round"/><path d="M12 16.998h-.009" stroke="#fff" stroke-width="2" stroke-linecap="round" stroke-linejoin="round"/></g><defs><clipPath id="ba"><path fill="#fff" d="M0 0h24v24H0z"/></clipPath></defs></symbol><symbol fill="none" viewBox="0 0 24 24" id="check" xmlns="http://www.w3.org/2000/svg"><rect x="2" y="2" width="20" height="20" rx="10" fill="#20438F"/><path d="m17 9-6.875 6.875L7 12.75" stroke="#fff" stroke-width="1.5" stroke-linecap="round" stroke-linejoin="round"/></symbol><symbol fill="none" viewBox="0 0 28 21" id="mastercard" xmlns="http://www.w3.org/2000/svg"><g clip-path="url(#da)"><path d="M5.004 20.622v-1.327c0-.509-.33-.84-.897-.84-.283 0-.59.088-.802.375-.166-.243-.402-.376-.756-.376-.236 0-.472.066-.66.31v-.266h-.496v2.124h.495V19.45c0-.376.213-.553.543-.553.33 0 .496.199.496.553v1.172h.496V19.45c0-.376.236-.553.543-.553.33 0 .495.199.495.553v1.172h.543Zm7.341-2.124h-.802v-.641h-.496v.641H10.6v.42h.448v.974c0 .487.213.775.78.775.212 0 .448-.067.613-.155l-.142-.399a.817.817 0 0 1-.425.111c-.236 0-.33-.133-.33-.354v-.951h.803v-.42Zm4.202-.044a.675.675 0 0 0-.59.31v-.266h-.496v2.124h.496v-1.194c0-.354.165-.553.472-.553.095 0 .213.022.307.044l.142-.443c-.095-.022-.236-.022-.33-.022Zm-6.35.221c-.236-.155-.566-.22-.92-.22-.567 0-.944.265-.944.685 0 .354.283.553.779.62l.236.022c.26.044.4.11.4.22 0 .156-.188.266-.518.266s-.59-.11-.756-.22l-.236.353c.26.177.614.266.968.266.66 0 1.039-.288 1.039-.686 0-.376-.307-.576-.78-.642l-.235-.022c-.213-.022-.378-.066-.378-.2 0-.154.165-.242.425-.242.283 0 .566.11.708.177l.212-.377Zm13.172-.22a.675.675 0 0 0-.59.309v-.266h-.496v2.124h.496v-1.194c0-.354.165-.553.472-.553.095 0 .212.022.307.044l.142-.443c-.095-.022-.236-.022-.33-.022Zm-6.326 1.105c0 .642.472 1.107 1.204 1.107.33 0 .566-.067.802-.244l-.236-.376a.994.994 0 0 1-.59.2c-.401 0-.684-.266-.684-.687 0-.398.283-.663.684-.685.213 0 .402.066.59.199l.236-.377c-.236-.177-.472-.243-.802-.243-.732 0-1.204.465-1.204 1.106Zm4.58 0v-1.062h-.496v.266c-.166-.2-.402-.31-.708-.31-.638 0-1.134.465-1.134 1.106 0 .642.496 1.107 1.134 1.107.33 0 .566-.111.708-.31v.265h.495V19.56Zm-1.818 0c0-.376.26-.685.684-.685a.66.66 0 0 1 .685.685.672.672 0 0 1-.685.686c-.425-.022-.684-.31-.684-.686Zm-5.925-1.106c-.661 0-1.133.443-1.133 1.106 0 .664.472 1.107 1.156 1.107.33 0 .661-.089.921-.288l-.236-.332a1.176 1.176 0 0 1-.661.221c-.307 0-.614-.132-.684-.509h1.675v-.177c.024-.685-.4-1.128-1.038-1.128Zm0 .398c.307 0 .52.177.566.51h-1.18c.047-.288.26-.51.614-.51Zm12.298.708v-1.902h-.496v1.106c-.165-.2-.4-.31-.708-.31-.637 0-1.133.465-1.133 1.106 0 .642.496 1.107 1.133 1.107.33 0 .567-.111.708-.31v.265h.496V19.56Zm-1.818 0c0-.376.26-.685.685-.685a.66.66 0 0 1 .685.685.672.672 0 0 1-.685.686c-.425-.022-.685-.31-.685-.686Zm-16.57 0v-1.062h-.496v.266c-.165-.2-.401-.31-.708-.31-.638 0-1.133.465-1.133 1.106 0 .642.495 1.107 1.133 1.107.33 0 .566-.111.708-.31v.265h.496V19.56Zm-1.842 0c0-.376.26-.685.685-.685a.66.66 0 0 1 .685.685.672.672 0 0 1-.685.686c-.425-.022-.685-.31-.685-.686Z" fill="#000"/><path d="M17.468 2.37h-7.436v12.522h7.436V2.37Z" fill="#FF5F00"/><path d="M10.504 8.631c0-2.544 1.275-4.8 3.234-6.261A8.809 8.809 0 0 0 8.498.667C3.8.667 0 4.228 0 8.63c0 4.403 3.8 7.965 8.498 7.965a8.81 8.81 0 0 0 5.24-1.704c-1.959-1.438-3.234-3.717-3.234-6.26Z" fill="#EB001B"/><path d="M27.5 8.631c0 4.403-3.8 7.965-8.498 7.965a8.81 8.81 0 0 1-5.24-1.704c1.983-1.46 3.234-3.717 3.234-6.26 0-2.545-1.275-4.802-3.234-6.262a8.809 8.809 0 0 1 5.24-1.703C23.7.667 27.5 4.25 27.5 8.63Z" fill="#F79E1B"/></g><defs><clipPath id="da"><path fill="#fff" transform="translate(0 .667)" d="M0 0h27.5v20H0z"/></clipPath></defs></symbol><symbol fill="none" viewBox="0 0 69 21" id="mir" xmlns="http://www.w3.org/2000/svg"><g clip-path="url(#ea)" fill-rule="evenodd" clip-rule="evenodd"><path d="M18.593.667v.008c-.008 0-2.695-.008-3.411 2.563-.657 2.359-2.508 8.87-2.559 9.05h-.512S10.218 5.63 9.553 3.23C8.836.658 6.14.667 6.14.667H0v19.567h6.14V8.613h.513l3.582 11.62h4.264l3.583-11.611h.511v11.612h6.141V.667h-6.14Zm22.432 0s-1.8.162-2.644 2.05l-4.35 9.57h-.512V.667h-6.14v19.567h5.799s1.885-.171 2.73-2.051l4.264-9.57h.512v11.62h6.14V.668h-5.8Zm8.529 8.886v10.68h6.14v-6.237h6.653c2.9 0 5.357-1.854 6.27-4.443H49.553Z" fill="#006845"/><path d="M62.347.667H48.692a9.821 9.821 0 0 0 7.08 7.69c.818.222 1.68.341 2.567.341h10.525A6.58 6.58 0 0 0 69 7.331C69 3.65 66.023.667 62.347.667Z" fill="url(#eb)"/></g><defs><linearGradient id="eb" x1="48.694" y1="4.682" x2="69" y2="4.682" gradientUnits="userSpaceOnUse"><stop offset=".3" stop-color="#00B4E6"/><stop offset="1" stop-color="#0062E4"/></linearGradient><clipPath id="ea"><path fill="#fff" transform="translate(0 .667)" d="M0 0h69v19.567H0z"/></clipPath></defs></symbol><symbol fill="none" viewBox="0 0 59 20" id="visa" xmlns="http://www.w3.org/2000/svg"><g clip-path="url(#fa)"><path d="M38.364.666c-4.183 0-7.92 2.158-7.92 6.146 0 4.574 6.627 4.888 6.627 7.186 0 .968-1.113 1.832-3.015 1.832a10.048 10.048 0 0 1-4.716-1.21l-.863 4.024a14.778 14.778 0 0 0 5.411 1.022c4.574 0 8.18-2.262 8.18-6.32 0-4.83-6.658-5.138-6.658-7.27 0-.757.91-1.582 2.81-1.582a9.577 9.577 0 0 1 3.886.88l.845-3.887a12.691 12.691 0 0 0-4.587-.82ZM.102.96 0 1.546c1.141.22 2.26.542 3.344.96 2.045.732 2.186 1.16 2.529 2.487l3.744 14.372h5.021L22.363.96h-4.999l-4.968 12.513-2.03-10.606C10.182 1.653 9.232.96 8.096.96H.102Zm24.283 0-3.929 18.406h4.772L29.142.96h-4.77.013Zm26.636 0c-1.152 0-1.76.613-2.208 1.688l-6.998 16.718h4.998l.968-2.787h6.1l.589 2.787h4.419L55.026.96h-4.005Zm.652 4.977 1.483 6.905h-3.975l2.499-6.905h-.007Z" fill="#312A5E"/></g><defs><clipPath id="fa"><path fill="#fff" transform="translate(0 .667)" d="M0 0h58.9v19H0z"/></clipPath></defs></symbol></svg>