<?xml version="1.0" encoding="utf-8"?><svg xmlns="http://www.w3.org/2000/svg" xmlns:xlink="http://www.w3.org/1999/xlink"><symbol fill="none" viewBox="0 0 16 17" id="arrow-down" xmlns="http://www.w3.org/2000/svg"><rect y=".5" width="16" height="16" rx="8" fill="#fff"/><path fill-rule="evenodd" clip-rule="evenodd" d="M8 5c-.316 0-.571.224-.571.5v5.793L4.975 9.146a.63.63 0 0 0-.808 0 .457.457 0 0 0 0 .708l3.429 3a.63.63 0 0 0 .808 0l3.429-3a.457.457 0 0 0 0-.708.63.63 0 0 0-.809 0l-2.453 2.147V5.5c0-.276-.255-.5-.571-.5Z" fill="#20438F"/></symbol><symbol fill="none" viewBox="0 0 16 16" id="telegram" xmlns="http://www.w3.org/2000/svg"><path d="m14.629 3.698-2.012 9.618c-.152.679-.548.848-1.11.528l-3.066-2.29-1.48 1.442c-.163.166-.3.305-.616.305l.22-3.165 5.683-5.204c.247-.223-.054-.347-.384-.123L4.839 9.29l-3.024-.959c-.658-.208-.67-.667.137-.986L13.78 2.727c.548-.208 1.027.124.849.971Z" fill="#000"/></symbol></svg>