<?xml version="1.0" encoding="utf-8"?><svg xmlns="http://www.w3.org/2000/svg" xmlns:xlink="http://www.w3.org/1999/xlink"><symbol viewBox="0 0 52 53" id="arrow-up" xmlns="http://www.w3.org/2000/svg"><path d="M25.495 18.88a.705.705 0 0 1 1.01 0l4.286 4.363a.737.737 0 0 1 0 1.029.705.705 0 0 1-1.01 0l-3.067-3.122v12.79a.72.72 0 0 1-.714.727.72.72 0 0 1-.714-.728V21.15l-3.067 3.123a.705.705 0 0 1-1.01 0 .737.737 0 0 1 0-1.029l4.286-4.363Z" fill-opacity=".08"/><rect x=".5" y="1.167" width="51" height="51" rx="25.5"/></symbol><symbol viewBox="0 0 16 17" id="arrows" xmlns="http://www.w3.org/2000/svg"><path d="M6.967 5.48a.495.495 0 0 1-.354-.147L4.487 3.207 2.36 5.333a.503.503 0 0 1-.707 0 .503.503 0 0 1 0-.706l2.48-2.48a.5.5 0 0 1 .707 0l2.48 2.48a.503.503 0 0 1 0 .706c-.1.1-.227.147-.353.147Z"/><path d="M4.487 15a.504.504 0 0 1-.5-.5v-12c0-.273.226-.5.5-.5.273 0 .5.227.5.5v12c0 .273-.227.5-.5.5Zm7.033 0a.5.5 0 0 1-.353-.147l-2.48-2.48a.503.503 0 0 1 0-.707.503.503 0 0 1 .706 0l2.127 2.127 2.127-2.127a.503.503 0 0 1 .706 0 .503.503 0 0 1 0 .707l-2.48 2.48a.511.511 0 0 1-.353.147Z"/><path d="M11.513 15a.504.504 0 0 1-.5-.5v-12c0-.273.227-.5.5-.5.274 0 .5.227.5.5v12a.5.5 0 0 1-.5.5Z"/></symbol><symbol viewBox="0 0 24 24" id="bag" xmlns="http://www.w3.org/2000/svg"><path d="M8.5 14.25c0 1.92 1.58 3.5 3.5 3.5s3.5-1.58 3.5-3.5M8.81 2 5.19 5.63m10-3.63 3.62 3.63M2 7.85c0-1.85.99-2 2.22-2h15.56c1.23 0 2.22.15 2.22 2 0 2.15-.99 2-2.22 2H4.22C2.99 9.85 2 10 2 7.85Z"/><path d="m3.5 10 1.41 8.64C5.23 20.58 6 22 8.86 22h6.03c3.11 0 3.57-1.36 3.93-3.24L20.5 10"/></symbol><symbol viewBox="0 0 22 24" id="basket" xmlns="http://www.w3.org/2000/svg"><g clip-path="url(#ada)"><path d="M10.363 18.443a2.046 2.046 0 0 0-2.045 2.042 2.046 2.046 0 0 0 4.09 0 2.046 2.046 0 0 0-2.045-2.042Zm6.134 0a2.046 2.046 0 0 0-2.045 2.042 2.046 2.046 0 0 0 4.089 0 2.046 2.046 0 0 0-2.044-2.042Zm3.978-8.199L7.413 6.891a.614.614 0 0 0-.75.73L8.67 16.4h-.786L5.482 5.895a.613.613 0 0 0-.474-.464l-4.27-.882A.614.614 0 0 0 .489 5.75l3.885.802L6.797 17.15a.613.613 0 0 0 .598.477h12.07a.615.615 0 0 0 .607-.53l.858-6.175a.613.613 0 0 0-.455-.678Zm-8.14 3.91a.613.613 0 0 1-1.227 0v-2.696a.613.613 0 0 1 1.227 0v2.696Zm2.625 0a.613.613 0 0 1-1.227 0v-1.88a.613.613 0 0 1 1.227 0v1.88Zm2.625 0a.613.613 0 0 1-1.227 0v-1.226a.613.613 0 0 1 1.227 0v1.226Z"/></g><path fill-rule="evenodd" clip-rule="evenodd" d="M16.268 4.568a2.996 2.996 0 0 0-1.693-.523c-.627 0-1.21.193-1.693.523-.28-.843-.492-1.752-.492-2.383C12.39.98 13.37 0 14.575 0s2.185.98 2.185 2.185c0 .631-.212 1.54-.492 2.383Zm-4.722 2.274.024.006v-.011l-.024.005Zm4.972 1.217c-1.333-.33-2.766-.681-4.129-1.013a2.185 2.185 0 1 1 4.129 1.013Zm4.436 1.103c-.866-.217-2.155-.538-3.618-.9a2.995 2.995 0 0 0 .243-1.425c.87.18 1.762.45 2.308.765.596.344.969.928 1.067 1.56ZM9.869 6.439c-.36-.086-.706-.167-1.03-.243a2.19 2.19 0 0 1-.376-2.667 2.188 2.188 0 0 1 3.147-.7c.098.738.338 1.599.61 2.353a3.01 3.01 0 0 0-.449.774c-.628.113-1.305.278-1.902.483Zm10.124.075a3.43 3.43 0 0 1-.217.114c-.696-.295-1.587-.526-2.397-.672a3.01 3.01 0 0 0-.449-.774c.262-.727.494-1.553.599-2.273.095-.067.189-.128.278-.18a2.188 2.188 0 0 1 2.986.8 2.188 2.188 0 0 1-.8 2.985Z"/><defs><clipPath id="ada"><path transform="translate(0 3.064)" d="M0 0h20.936v20.936H0z"/></clipPath></defs></symbol><symbol viewBox="0 0 16 16" id="card" xmlns="http://www.w3.org/2000/svg"><g stroke-width="1.5" stroke-linecap="round" stroke-linejoin="round"><path d="M1.333 5.67h13.333M4 11.003h1.333m1.667 0h2.667M4.293 2.337H11.7c2.373 0 2.966.587 2.966 2.927v5.473c0 2.34-.593 2.927-2.96 2.927H4.293c-2.367.006-2.96-.58-2.96-2.92v-5.48c0-2.34.593-2.927 2.96-2.927Z"/></g></symbol><symbol viewBox="0 0 16 17" id="card-arrow" xmlns="http://www.w3.org/2000/svg"><path d="M8 5.3c.467 0 .933.18 1.287.533l4.346 4.347a.503.503 0 0 1 0 .707.503.503 0 0 1-.706 0L8.58 6.54a.82.82 0 0 0-1.16 0l-4.347 4.347a.503.503 0 0 1-.706 0 .503.503 0 0 1 0-.707l4.346-4.347A1.82 1.82 0 0 1 8 5.3Z"/></symbol><symbol viewBox="0 0 344.96 344.96" id="check" xmlns="http://www.w3.org/2000/svg"><g data-name="Слой 2"><path class="agcls-1" d="m321.85 86.24-40-23.11-23.1-40H212.5L172.48 0l-40 23.11H86.24l-23.11 40-40 23.1v46.21L0 172.48l23.11 40v46.21l40 23.11 23.11 40h46.21l40 23.1 40-23.11h46.21l23.11-40 40-23.11V212.5l23.11-40-23.11-40V86.24ZM156.91 243.07a16.79 16.79 0 0 1-23.34 0l-50.45-50.44a16.19 16.19 0 0 1 0-22.89l13.35-13.35a16.19 16.19 0 0 1 22.89 0l25.87 25.87 80.34-80.35a16.19 16.19 0 0 1 22.89 0l13.35 13.35a16.19 16.19 0 0 1 0 22.89Z" data-name="Capa 1"/></g></symbol><symbol viewBox="0 0 16 16" id="checked" xmlns="http://www.w3.org/2000/svg"><path d="M2.5 8a5.5 5.5 0 0 1 8.25-4.764.5.5 0 0 0 .5-.866A6.5 6.5 0 1 0 14.5 8a.5.5 0 0 0-1 0 5.5 5.5 0 1 1-11 0Z"/><path d="M15.354 3.354a.5.5 0 0 0-.708-.708L8 9.293 5.354 6.646a.5.5 0 1 0-.708.708l3 3a.5.5 0 0 0 .708 0l7-7Z"/></symbol><symbol viewBox="0 0 16 16" id="document" xmlns="http://www.w3.org/2000/svg"><g stroke-width="1.5" stroke-linecap="round" stroke-linejoin="round"><path d="m14.44 6.96-.653 2.787c-.56 2.407-1.667 3.38-3.747 3.18a7.017 7.017 0 0 1-1.08-.18l-1.12-.267c-2.78-.66-3.64-2.033-2.987-4.82l.653-2.793C5.64 4.3 5.8 3.807 6 3.4c.78-1.613 2.106-2.046 4.333-1.52l1.114.26c2.793.654 3.646 2.034 2.993 4.82Z"/><path d="M10.04 12.927c-.413.28-.933.513-1.566.72l-1.054.347c-2.646.853-4.04.14-4.9-2.507l-.853-2.633c-.853-2.647-.147-4.047 2.5-4.9l1.053-.347c.274-.087.534-.16.78-.207-.2.407-.36.9-.493 1.467L4.854 7.66c-.654 2.787.206 4.16 2.986 4.82l1.12.267c.387.093.747.153 1.08.18Zm-1.613-7.24 3.233.82m-3.887 1.76 1.934.493"/></g></symbol><symbol viewBox="0 0 24 24" id="fb" xmlns="http://www.w3.org/2000/svg"><path d="M13.397 20.997v-8.196h2.765l.411-3.209h-3.176V7.548c0-.926.258-1.56 1.587-1.56h1.684v-2.86A22.108 22.108 0 0 0 14.201 3c-2.444 0-4.122 1.492-4.122 4.231v2.355H7.332v3.21h2.753v8.201h3.312Z"/></symbol><symbol viewBox="0 0 22 22" id="filters" xmlns="http://www.w3.org/2000/svg"><path d="M17.416 1.833H4.583a2.75 2.75 0 0 0-2.75 2.75v1.073c0 .378.078.753.23 1.1v.055c.129.294.312.561.54.788l5.647 5.61v6.041a.917.917 0 0 0 .916.917.918.918 0 0 0 .413-.101l3.666-1.833a.916.916 0 0 0 .505-.816v-4.208l5.61-5.61c.228-.227.411-.494.54-.788v-.055a2.75 2.75 0 0 0 .266-1.1V4.583a2.75 2.75 0 0 0-2.75-2.75Zm-5.234 10.35a.916.916 0 0 0-.266.65v4.015l-1.833.917v-4.932a.916.916 0 0 0-.266-.65L4.96 7.332h12.08l-4.859 4.85ZM18.333 5.5H3.666v-.917a.917.917 0 0 1 .917-.916h12.833a.917.917 0 0 1 .917.916V5.5Z"/></symbol><symbol viewBox="0 0 17 16" id="gallery" xmlns="http://www.w3.org/2000/svg"><g stroke-width="1.5" stroke-linecap="round" stroke-linejoin="round"><path d="M6.5 14.666h4c3.333 0 4.666-1.333 4.666-4.666V6c0-3.334-1.333-4.667-4.666-4.667h-4C3.166 1.333 1.833 2.666 1.833 6v4c0 3.333 1.333 4.666 4.667 4.666Z"/><path d="M6.5 6.667A1.333 1.333 0 1 0 6.5 4a1.333 1.333 0 0 0 0 2.667Zm-4.22 5.966 3.287-2.207c.527-.353 1.287-.313 1.76.094l.22.193c.52.447 1.36.447 1.88 0l2.773-2.38c.52-.447 1.36-.447 1.88 0l1.087.933"/></g></symbol><symbol viewBox="0 0 16 16" id="geo" xmlns="http://www.w3.org/2000/svg"><path d="M12.166 8.94c-.524 1.062-1.234 2.12-1.96 3.07A31.493 31.493 0 0 1 8 14.58a31.481 31.481 0 0 1-2.206-2.57c-.726-.95-1.436-2.008-1.96-3.07C3.304 7.867 3 6.862 3 6a5 5 0 0 1 10 0c0 .862-.305 1.867-.834 2.94ZM8 16s6-5.686 6-10A6 6 0 0 0 2 6c0 4.314 6 10 6 10Z"/><path d="M8 8a2 2 0 1 1 0-4 2 2 0 0 1 0 4Zm0 1a3 3 0 1 0 0-6 3 3 0 0 0 0 6Z"/></symbol><symbol viewBox="0 0 17 17" id="grid" xmlns="http://www.w3.org/2000/svg"><path d="M1.063 2.134c0-.592.48-1.071 1.07-1.071h2.144c.592 0 1.071.48 1.071 1.07v2.144c0 .592-.48 1.071-1.071 1.071H2.134c-.592 0-1.071-.48-1.071-1.071V2.134Zm5.357 0c0-.592.48-1.071 1.071-1.071h2.143c.592 0 1.071.48 1.071 1.07v2.144c0 .592-.48 1.071-1.071 1.071H7.49c-.592 0-1.071-.48-1.071-1.071V2.134Zm5.357 0c0-.592.48-1.071 1.071-1.071h2.143c.592 0 1.072.48 1.072 1.07v2.144c0 .592-.48 1.071-1.072 1.071h-2.143c-.591 0-1.071-.48-1.071-1.071V2.134ZM1.063 7.491c0-.592.48-1.071 1.07-1.071h2.144c.592 0 1.071.48 1.071 1.071v2.143c0 .592-.48 1.071-1.071 1.071H2.134c-.592 0-1.071-.48-1.071-1.071V7.49Zm5.357 0c0-.592.48-1.071 1.071-1.071h2.143c.592 0 1.071.48 1.071 1.071v2.143c0 .592-.48 1.071-1.071 1.071H7.49c-.592 0-1.071-.48-1.071-1.071V7.49Zm5.357 0c0-.592.48-1.071 1.071-1.071h2.143c.592 0 1.072.48 1.072 1.071v2.143c0 .592-.48 1.071-1.072 1.071h-2.143c-.591 0-1.071-.48-1.071-1.071V7.49ZM1.063 12.848c0-.591.48-1.071 1.07-1.071h2.144c.592 0 1.071.48 1.071 1.071v2.143c0 .592-.48 1.072-1.071 1.072H2.134c-.592 0-1.071-.48-1.071-1.072v-2.143Zm5.357 0c0-.591.48-1.071 1.071-1.071h2.143c.592 0 1.071.48 1.071 1.071v2.143c0 .592-.48 1.072-1.071 1.072H7.49c-.592 0-1.071-.48-1.071-1.072v-2.143Zm5.357 0c0-.591.48-1.071 1.071-1.071h2.143c.592 0 1.072.48 1.072 1.071v2.143c0 .592-.48 1.072-1.072 1.072h-2.143c-.591 0-1.071-.48-1.071-1.072v-2.143Z"/></symbol><symbol viewBox="0 0 24 24" id="heart" xmlns="http://www.w3.org/2000/svg"><path d="M12 21.65c-.31 0-.61-.04-.86-.13-3.82-1.31-9.89-5.96-9.89-12.83 0-3.5 2.83-6.34 6.31-6.34 1.69 0 3.27.66 4.44 1.84a6.214 6.214 0 0 1 4.44-1.84c3.48 0 6.31 2.85 6.31 6.34 0 6.88-6.07 11.52-9.89 12.83-.25.09-.55.13-.86.13ZM7.56 3.85c-2.65 0-4.81 2.17-4.81 4.84 0 6.83 6.57 10.63 8.88 11.42.18.06.57.06.75 0 2.3-.79 8.88-4.58 8.88-11.42 0-2.67-2.16-4.84-4.81-4.84-1.52 0-2.93.71-3.84 1.94-.28.38-.92.38-1.2 0a4.77 4.77 0 0 0-3.85-1.94Z"/></symbol><symbol viewBox="0 0 24 24" id="instagram" xmlns="http://www.w3.org/2000/svg"><path d="M11.999 7.377a4.624 4.624 0 1 0 0 9.248 4.624 4.624 0 0 0 0-9.248Zm0 7.627a3.004 3.004 0 1 1 0-6.008 3.004 3.004 0 0 1 0 6.008Zm4.807-6.719a1.078 1.078 0 1 0 0-2.156 1.078 1.078 0 0 0 0 2.156Z"/><path d="M20.533 6.11A4.605 4.605 0 0 0 17.9 3.48a6.607 6.607 0 0 0-2.186-.42c-.963-.042-1.268-.054-3.71-.054s-2.755 0-3.71.054a6.554 6.554 0 0 0-2.184.42 4.6 4.6 0 0 0-2.633 2.63 6.585 6.585 0 0 0-.419 2.186c-.043.962-.056 1.267-.056 3.71 0 2.442 0 2.753.056 3.71.015.748.156 1.486.419 2.187a4.61 4.61 0 0 0 2.634 2.632 6.583 6.583 0 0 0 2.185.45c.963.042 1.268.055 3.71.055s2.755 0 3.71-.055a6.616 6.616 0 0 0 2.186-.42 4.613 4.613 0 0 0 2.633-2.632c.263-.7.404-1.438.419-2.186.043-.962.056-1.267.056-3.71s0-2.753-.056-3.71a6.583 6.583 0 0 0-.421-2.217Zm-1.218 9.533a5.046 5.046 0 0 1-.311 1.688 2.987 2.987 0 0 1-1.712 1.71c-.535.2-1.1.305-1.67.312-.95.044-1.218.055-3.654.055-2.438 0-2.687 0-3.655-.055a4.961 4.961 0 0 1-1.67-.311 2.984 2.984 0 0 1-1.718-1.711 5.08 5.08 0 0 1-.311-1.67c-.043-.95-.053-1.217-.053-3.653 0-2.437 0-2.686.053-3.655a5.038 5.038 0 0 1 .311-1.687c.305-.79.93-1.41 1.719-1.712a5.01 5.01 0 0 1 1.669-.311c.95-.043 1.218-.055 3.655-.055s2.687 0 3.654.055a4.96 4.96 0 0 1 1.67.31 2.99 2.99 0 0 1 1.712 1.713 5.06 5.06 0 0 1 .311 1.669c.043.95.054 1.218.054 3.655 0 2.436 0 2.698-.043 3.654h-.011v-.001Z"/></symbol><symbol viewBox="0 0 17 15" id="list" xmlns="http://www.w3.org/2000/svg"><path fill-rule="evenodd" clip-rule="evenodd" d="M1 9.643h2c.55 0 1-.482 1-1.072V6.43c0-.59-.45-1.072-1-1.072H1c-.55 0-1 .482-1 1.072v2.14c0 .59.45 1.072 1 1.072ZM1 15h2c.55 0 1-.482 1-1.071v-2.143c0-.59-.45-1.072-1-1.072H1c-.55 0-1 .482-1 1.072v2.143C0 14.518.45 15 1 15ZM1 4.286h2c.55 0 1-.482 1-1.072V1.071C4 .482 3.55 0 3 0H1C.45 0 0 .482 0 1.071v2.143c0 .59.45 1.072 1 1.072Zm5 5.357h10c.55 0 1-.482 1-1.072V6.43c0-.59-.45-1.072-1-1.072H6c-.55 0-1 .482-1 1.072v2.14c0 .59.45 1.072 1 1.072ZM6 15h10c.55 0 1-.482 1-1.071v-2.143c0-.59-.45-1.072-1-1.072H6c-.55 0-1 .482-1 1.072v2.143C5 14.518 5.45 15 6 15ZM5 1.071v2.143c0 .59.45 1.072 1 1.072h10c.55 0 1-.482 1-1.072V1.071C17 .482 16.55 0 16 0H6c-.55 0-1 .482-1 1.071Z"/></symbol><symbol viewBox="0 0 24 24" id="location" xmlns="http://www.w3.org/2000/svg"><path d="M12 14.17c-2.13 0-3.87-1.73-3.87-3.87S9.87 6.44 12 6.44s3.87 1.73 3.87 3.87-1.74 3.86-3.87 3.86Zm0-6.23c-1.3 0-2.37 1.06-2.37 2.37s1.06 2.37 2.37 2.37 2.37-1.06 2.37-2.37S13.3 7.94 12 7.94Z"/><path d="M12 22.76a5.97 5.97 0 0 1-4.13-1.67c-2.95-2.84-6.21-7.37-4.98-12.76C4 3.44 8.27 1.25 12 1.25h.01c3.73 0 8 2.19 9.11 7.09 1.22 5.39-2.04 9.91-4.99 12.75A5.97 5.97 0 0 1 12 22.76Zm0-20.01c-2.91 0-6.65 1.55-7.64 5.91C3.28 13.37 6.24 17.43 8.92 20a4.426 4.426 0 0 0 6.17 0c2.67-2.57 5.63-6.63 4.57-11.34-1-4.36-4.75-5.91-7.66-5.91Z"/></symbol><symbol viewBox="0 0 16 17" id="login" xmlns="http://www.w3.org/2000/svg"><g stroke-width="1.5" stroke-linecap="round" stroke-linejoin="round"><path d="M5.934 5.54c.206-2.4 1.44-3.38 4.14-3.38h.086c2.98 0 4.174 1.193 4.174 4.173v4.347c0 2.98-1.194 4.174-4.174 4.174h-.086c-2.68 0-3.914-.967-4.134-3.327M1.333 8.5H9.92"/><path d="M8.434 6.267 10.667 8.5l-2.233 2.233"/></g></symbol><symbol viewBox="0 0 7 14" id="next" xmlns="http://www.w3.org/2000/svg"><path fill-rule="evenodd" clip-rule="evenodd" d="M.146.396a.5.5 0 0 1 .708 0l6 6a.5.5 0 0 1 0 .708l-6 6a.5.5 0 0 1-.708-.708L5.793 6.75.146 1.104a.5.5 0 0 1 0-.708Z"/></symbol><symbol viewBox="0 0 17 16" id="orders" xmlns="http://www.w3.org/2000/svg"><path d="M5.917 9.5a2.344 2.344 0 0 0 2.333 2.333A2.345 2.345 0 0 0 10.584 9.5M6.123 1.333 3.71 3.753m6.667-2.42 2.413 2.42M1.583 5.234c0-1.234.66-1.334 1.48-1.334h10.373c.82 0 1.48.1 1.48 1.334 0 1.433-.66 1.333-1.48 1.333H3.063c-.82 0-1.48.1-1.48-1.333Z"/><path d="m2.583 6.667.94 5.76c.213 1.293.727 2.24 2.633 2.24h4.02c2.074 0 2.38-.907 2.62-2.16l1.12-5.84"/></symbol><symbol viewBox="0 0 24 24" id="profile" xmlns="http://www.w3.org/2000/svg"><path d="M12.16 10.87c-.1-.01-.22-.01-.33 0a4.42 4.42 0 0 1-4.27-4.43C7.56 3.99 9.54 2 12 2a4.435 4.435 0 0 1 .16 8.87Zm-5 3.69c-2.42 1.62-2.42 4.26 0 5.87 2.75 1.84 7.26 1.84 10.01 0 2.42-1.62 2.42-4.26 0-5.87-2.74-1.83-7.25-1.83-10.01 0Z"/></symbol><symbol viewBox="0 0 34 34" id="remove-btn" xmlns="http://www.w3.org/2000/svg"><path d="M9.874 9.874a1.063 1.063 0 0 1 1.502 0L17 15.497l5.624-5.623a1.063 1.063 0 0 1 1.502 1.502L18.503 17l5.623 5.624a1.063 1.063 0 0 1-1.502 1.502L17 18.503l-5.624 5.623a1.063 1.063 0 0 1-1.502-1.502L15.497 17l-5.623-5.624a1.063 1.063 0 0 1 0-1.502Z" fill-opacity=".08"/></symbol><symbol viewBox="0 0 16 17" id="search" xmlns="http://www.w3.org/2000/svg"><path d="M7.667 15C3.9 15 .833 11.933.833 8.167.833 4.4 3.9 1.333 7.667 1.333c3.766 0 6.833 3.067 6.833 6.834C14.5 11.933 11.433 15 7.667 15Zm0-12.667a5.84 5.84 0 0 0-5.834 5.834A5.84 5.84 0 0 0 7.667 14 5.84 5.84 0 0 0 13.5 8.167a5.84 5.84 0 0 0-5.833-5.834Zm7 13.334a.495.495 0 0 1-.354-.147l-1.333-1.333a.503.503 0 0 1 0-.707.503.503 0 0 1 .707 0l1.333 1.333a.503.503 0 0 1 0 .707c-.1.1-.227.147-.353.147Z"/></symbol><symbol viewBox="0 0 24 25" id="share" xmlns="http://www.w3.org/2000/svg"><path d="M18.471 14.94a3.517 3.517 0 0 0-2.844 1.465l-5.744-2.823a3.68 3.68 0 0 0 .174-1.086 3.68 3.68 0 0 0-.174-1.085l5.744-2.823a3.507 3.507 0 1 0-.684-2.063 3.2 3.2 0 0 0 .054.543l-5.939 2.985a3.463 3.463 0 0 0-2.53-1.085 3.528 3.528 0 1 0 1.378 6.776c.435-.187.827-.46 1.152-.805l5.94 2.986a3.195 3.195 0 0 0-.055.553 3.529 3.529 0 1 0 3.528-3.528v-.01Zm0-10.315a1.9 1.9 0 1 1-1.9 1.9 1.91 1.91 0 0 1 1.9-1.9ZM6.53 14.396a1.9 1.9 0 1 1 1.9-1.9 1.91 1.91 0 0 1-1.9 1.9Zm11.942 5.972a1.9 1.9 0 1 1 1.9-1.9 1.91 1.91 0 0 1-1.9 1.9Z"/></symbol><symbol viewBox="0 0 16 17" id="slider-arrow" xmlns="http://www.w3.org/2000/svg"><path d="M4.744 15.794V5.206l6.512 5.294-6.512 5.294Zm.782.83 6.513-5.293a1.053 1.053 0 0 0 0-1.662L5.526 4.375c-.768-.624-1.97-.117-1.97.83v10.589c0 .948 1.202 1.455 1.97.83Z"/></symbol><symbol viewBox="0 0 17 17" id="star" xmlns="http://www.w3.org/2000/svg"><path d="M3.612 15.943c-.386.198-.824-.149-.746-.592l.83-4.73L.173 7.265c-.329-.314-.158-.888.283-.95l4.898-.696 2.184-4.327c.197-.39.73-.39.927 0l2.184 4.327 4.898.696c.441.062.612.636.282.95l-3.522 3.356.83 4.73c.078.443-.36.79-.746.592L8 13.687l-4.389 2.256Z"/></symbol><symbol viewBox="0 0 16 16" id="telegram" xmlns="http://www.w3.org/2000/svg"><path d="m14.629 3.698-2.012 9.618c-.152.679-.548.848-1.11.528l-3.066-2.29-1.48 1.442c-.163.166-.3.305-.616.305l.22-3.165 5.683-5.204c.247-.223-.054-.347-.384-.123L4.839 9.29l-3.024-.959c-.658-.208-.67-.667.137-.986L13.78 2.727c.548-.208 1.027.124.849.971Z"/></symbol><symbol viewBox="0 0 24 25" id="tiktok" xmlns="http://www.w3.org/2000/svg"><path d="M12.354 4.68c.879-.013 1.752-.005 2.625-.013.053 1.027.423 2.074 1.175 2.8.75.746 1.813 1.087 2.846 1.202v2.704c-.968-.032-1.941-.234-2.82-.65a8.154 8.154 0 0 1-1.088-.625c-.005 1.962.008 3.921-.013 5.875a5.11 5.11 0 0 1-.908 2.646c-.878 1.288-2.402 2.128-3.968 2.154-.96.055-1.92-.207-2.738-.69-1.356-.8-2.31-2.263-2.45-3.834a11.234 11.234 0 0 1-.007-1c.12-1.277.753-2.5 1.733-3.33 1.112-.969 2.67-1.43 4.128-1.157.014.994-.026 1.988-.026 2.982-.666-.215-1.445-.155-2.027.25a2.326 2.326 0 0 0-.916 1.175c-.139.34-.099.718-.09 1.08.159 1.102 1.218 2.028 2.35 1.927.75-.008 1.468-.443 1.858-1.08.127-.223.268-.451.276-.713.066-1.201.04-2.397.048-3.598.005-2.707-.008-5.406.012-8.104Z"/></symbol><symbol viewBox="0 0 24 24" id="truck" xmlns="http://www.w3.org/2000/svg"><path d="M13 14.75h-1c-.41 0-.75-.34-.75-.75s.34-.75.75-.75h1c.69 0 1.25-.56 1.25-1.25V2.75H6c-1.18 0-2.26.64-2.84 1.67-.2.36-.66.49-1.02.29a.753.753 0 0 1-.29-1.02C2.69 2.19 4.28 1.25 6 1.25h9c.41 0 .75.34.75.75v10c0 1.52-1.23 2.75-2.75 2.75Z"/><path d="M19 20.75h-1c-.41 0-.75-.34-.75-.75a1.25 1.25 0 0 0-2.5 0c0 .41-.34.75-.75.75h-4c-.41 0-.75-.34-.75-.75a1.25 1.25 0 0 0-2.5 0c0 .41-.34.75-.75.75H5c-2.07 0-3.75-1.68-3.75-3.75 0-.41.34-.75.75-.75s.75.34.75.75c0 1.24 1.01 2.25 2.25 2.25h.35c.33-1.15 1.39-2 2.65-2s2.32.85 2.65 2h2.71c.33-1.15 1.39-2 2.65-2s2.32.85 2.65 2H19c1.24 0 2.25-1.01 2.25-2.25v-2.25H19c-.96 0-1.75-.79-1.75-1.75v-3c0-.96.78-1.75 1.75-1.75l-1.07-1.87c-.22-.39-.64-.63-1.09-.63h-1.09V12c0 1.52-1.23 2.75-2.75 2.75h-1c-.41 0-.75-.34-.75-.75s.34-.75.75-.75h1c.69 0 1.25-.56 1.25-1.25V5c0-.41.34-.75.75-.75h1.84c.99 0 1.9.53 2.39 1.39l1.71 2.99c.13.23.13.52 0 .75-.13.23-.38.37-.65.37H19c-.14 0-.25.11-.25.25v3c0 .14.11.25.25.25h3c.41 0 .75.34.75.75v3c0 2.07-1.68 3.75-3.75 3.75Z"/><path d="M8 22.75c-1.52 0-2.75-1.23-2.75-2.75S6.48 17.25 8 17.25s2.75 1.23 2.75 2.75S9.52 22.75 8 22.75Zm0-4a1.25 1.25 0 1 0 0 2.5 1.25 1.25 0 0 0 0-2.5Zm8 4c-1.52 0-2.75-1.23-2.75-2.75s1.23-2.75 2.75-2.75 2.75 1.23 2.75 2.75-1.23 2.75-2.75 2.75Zm0-4a1.25 1.25 0 1 0 0 2.5 1.25 1.25 0 0 0 0-2.5Zm6-4h-3c-.96 0-1.75-.79-1.75-1.75v-3c0-.96.79-1.75 1.75-1.75h1.29c.27 0 .52.14.65.38l1.71 3c.06.11.1.24.1.37v2c0 .41-.34.75-.75.75Zm-3-5c-.14 0-.25.11-.25.25v3c0 .14.11.25.25.25h2.25V12.2l-1.4-2.45H19Zm-11-1H2c-.41 0-.75-.34-.75-.75s.34-.75.75-.75h6c.41 0 .75.34.75.75s-.34.75-.75.75Zm-2 3H2c-.41 0-.75-.34-.75-.75s.34-.75.75-.75h4c.41 0 .75.34.75.75s-.34.75-.75.75Zm-2 3H2c-.41 0-.75-.34-.75-.75s.34-.75.75-.75h2c.41 0 .75.34.75.75s-.34.75-.75.75Z"/></symbol><symbol viewBox="0 0 16 16" id="viber" xmlns="http://www.w3.org/2000/svg"><path d="M8 1.335c-1.071.013-3.374.19-4.662 1.37-.958.948-1.292 2.35-1.331 4.084-.033 1.728-.072 4.973 3.058 5.856v1.346s-.02.538.337.648c.438.14.688-.275 1.105-.72l.778-.879c2.142.178 3.782-.232 3.97-.293.435-.139 2.883-.451 3.283-3.696.41-3.351-.2-5.463-1.301-6.418h-.007c-.332-.306-1.668-1.279-4.652-1.29 0 0-.222-.014-.578-.008Zm.037.942a7.02 7.02 0 0 1 .488.011c2.527.007 3.732.767 4.017 1.023.927.794 1.405 2.697 1.055 5.495-.332 2.713-2.317 2.885-2.685 3.002-.156.05-1.6.406-3.42.289 0 0-1.356 1.634-1.78 2.055-.067.074-.146.095-.196.085-.071-.018-.093-.107-.089-.229l.013-2.233c-2.655-.733-2.498-3.5-2.47-4.946.033-1.446.304-2.628 1.113-3.43 1.088-.982 3.043-1.115 3.953-1.122Zm.2 1.446a.166.166 0 1 0 0 .332 3.136 3.136 0 0 1 2.242.883c.606.588.9 1.378.912 2.411 0 .092.074.167.167.167V7.51a.167.167 0 0 0 .168-.165 3.588 3.588 0 0 0-1.009-2.646c-.66-.645-1.496-.977-2.48-.977Zm-2.198.382a.523.523 0 0 0-.342.067H5.69a2.61 2.61 0 0 0-.637.523 1.003 1.003 0 0 0-.256.525.71.71 0 0 0 .026.302l.01.006c.172.504.396.988.67 1.444a8.48 8.48 0 0 0 1.29 1.762l.015.022.024.017.015.018.017.015c.532.505 1.127.94 1.769 1.295.734.4 1.18.588 1.447.667v.004c.078.024.15.034.221.034.228-.016.444-.109.613-.262a2.53 2.53 0 0 0 .517-.638v-.004c.128-.241.085-.469-.1-.623-.37-.323-.77-.61-1.195-.857-.285-.155-.574-.061-.69.095l-.25.315c-.129.156-.361.134-.361.134l-.007.004C7.093 8.527 6.63 6.772 6.63 6.772s-.022-.239.139-.36l.312-.252c.15-.122.254-.41.094-.695a7.498 7.498 0 0 0-.856-1.194.475.475 0 0 0-.28-.167Zm2.486.495c-.221 0-.221.334.003.334A2.098 2.098 0 0 1 10 5.572 1.94 1.94 0 0 1 10.5 7a.168.168 0 0 0 .167.165l.007.009a.169.169 0 0 0 .167-.167c.015-.662-.191-1.218-.595-1.663C9.84 4.9 9.273 4.65 8.549 4.6h-.024Zm.274.898c-.228-.006-.236.335-.01.341.55.029.816.306.851.877a.166.166 0 0 0 .165.163h.007a.168.168 0 0 0 .16-.178c-.039-.744-.445-1.164-1.166-1.202H8.8Z"/></symbol><symbol viewBox="0 0 30 25" id="vk" xmlns="http://www.w3.org/2000/svg"><path d="M26.87 17.768c-.98-1.617-3.504-3.559-4.547-4.404-.285-.232-.316-.632-.056-.888 1.99-1.959 3.58-4.21 4.128-5.57.242-.6-.258-1.235-.963-1.235h-2.047c-.675 0-1.07.222-1.258.575-1.653 3.105-3.072 4.448-4.064 5.234-.556.44-1.423.075-1.423-.594V6.747c0-.573-.511-1.037-1.143-1.037l-3.74-.039c-.47 0-.739.488-.456.83l.617.813c.233.281.358.624.358.975l-.003 3.658c0 .636-.842.947-1.341.501-1.69-1.508-3.157-4.589-3.685-6.062-.153-.426-.589-.714-1.083-.715l-2.017-.005c-.756 0-1.31.658-1.104 1.32 1.843 5.926 5.623 11.564 12.36 12.176.664.06 1.237-.43 1.237-1.037v-1.922c0-.551.472-1.025 1.079-1.04h.063c1.782 0 3.778 2.377 4.476 3.489.201.32.576.514.982.514h2.713c.791 0 1.299-.769.918-1.398Z"/></symbol><symbol viewBox="0 0 36 36" id="vk2" xmlns="http://www.w3.org/2000/svg"><g clip-path="url(#bga)"><path d="M17.963 35.927c9.921 0 17.964-8.043 17.964-17.964C35.927 8.043 27.884 0 17.963 0 8.043 0 0 8.042 0 17.963c0 9.921 8.042 17.964 17.963 17.964Z"/><path d="M19.39 24.488C12.559 24.488 8.662 19.805 8.5 12h3.422c.112 5.72 2.635 8.117 4.633 8.642v-8.63h3.222v4.933c1.973-.212 4.046-2.46 4.745-4.933h3.216a9.516 9.516 0 0 1-4.37 6.245A9.86 9.86 0 0 1 28.5 24.5h-3.553a6.163 6.163 0 0 0-5.17-4.459V24.5l-.387-.013Z"/></g><defs><clipPath id="bga"><path d="M0 0h36v36H0z"/></clipPath></defs></symbol><symbol viewBox="0 0 16 16" id="whatsapp" xmlns="http://www.w3.org/2000/svg"><path fill-rule="evenodd" clip-rule="evenodd" d="M12.269 3.755A5.947 5.947 0 0 0 8.035 2 5.994 5.994 0 0 0 2.05 7.985a5.98 5.98 0 0 0 .799 2.992L2 14.077l3.173-.832c.877.477 1.86.728 2.86.728h.002a5.993 5.993 0 0 0 5.533-8.276 5.953 5.953 0 0 0-1.3-1.942Zm-4.234 9.208h-.002c-.89 0-1.765-.24-2.532-.694l-.181-.108-1.883.494.502-1.835-.118-.188a4.965 4.965 0 0 1-.76-2.647 4.982 4.982 0 0 1 6.88-4.597c.604.25 1.152.618 1.613 1.081a4.946 4.946 0 0 1 1.455 3.52 4.982 4.982 0 0 1-4.974 4.974Zm2.729-3.726c-.15-.075-.885-.436-1.022-.486-.137-.05-.236-.075-.336.074-.1.15-.387.486-.474.586-.087.1-.175.112-.324.038-.15-.075-.631-.233-1.203-.742a4.505 4.505 0 0 1-.832-1.036c-.087-.15-.009-.231.066-.306.068-.066.15-.174.224-.262.075-.087.1-.149.15-.249.05-.1.025-.187-.013-.262-.037-.075-.337-.811-.461-1.11-.121-.29-.244-.252-.336-.256a6.418 6.418 0 0 0-.286-.005.55.55 0 0 0-.4.186c-.137.15-.523.512-.523 1.248s.536 1.447.61 1.547c.075.1 1.055 1.61 2.555 2.258.358.154.636.246.853.315.358.114.684.098.942.06.287-.043.885-.362 1.01-.711.124-.35.124-.649.087-.711-.038-.063-.138-.101-.287-.176Z"/></symbol><symbol viewBox="0 0 30 25" id="youtube" xmlns="http://www.w3.org/2000/svg"><path d="M14.575 4.667h.128c1.181.004 7.169.045 8.783.459.99.252 1.769.997 2.034 1.943.145.52.247 1.21.317 1.92l.014.143.031.356.011.142A41.24 41.24 0 0 1 26 12.308v.104a40.904 40.904 0 0 1-.118 2.82l-.012.143-.012.143c-.072.784-.178 1.562-.338 2.133-.265.946-1.044 1.691-2.034 1.944-1.668.427-8.006.457-8.885.46H14.4c-.445-.002-2.283-.01-4.208-.073l-.246-.008-.124-.005-.246-.01-.246-.009c-1.595-.067-3.115-.176-3.815-.355-.99-.253-1.769-.998-2.033-1.944-.16-.571-.267-1.35-.339-2.133l-.012-.143-.012-.142A40.957 40.957 0 0 1 3 12.445v-.169a41.85 41.85 0 0 1 .092-2.435l.01-.14.005-.071.011-.142.03-.356.015-.143c.07-.71.172-1.4.318-1.92.264-.946 1.043-1.69 2.033-1.943.7-.18 2.22-.289 3.815-.355l.246-.01.246-.01.124-.004.246-.008c1.802-.06 3.528-.07 4.106-.072h.278ZM12.2 9.063v6.595l5.975-3.298L12.2 9.063Z"/></symbol></svg>