<svg width="16" height="17" viewBox="0 0 16 17" fill="none" xmlns="http://www.w3.org/2000/svg">
<rect y="0.5" width="16" height="16" rx="8" fill="white"/>
<path fill-rule="evenodd" clip-rule="evenodd" d="M8 5C7.68441 5 7.42857 5.22386 7.42857 5.5L7.42857 11.2929L4.97549 9.14645C4.75233 8.95118 4.39052 8.95118 4.16737 9.14645C3.94421 9.34171 3.94421 9.65829 4.16737 9.85355L7.59594 12.8536C7.81909 13.0488 8.1809 13.0488 8.40406 12.8536L11.8326 9.85355C12.0558 9.65829 12.0558 9.34171 11.8326 9.14645C11.6095 8.95118 11.2477 8.95118 11.0245 9.14645L8.57143 11.2929L8.57143 5.5C8.57143 5.22386 8.31559 5 8 5Z" fill="#20438F"/>
</svg>
