<svg width="36" height="36" viewBox="0 0 36 36" fill="none" xmlns="http://www.w3.org/2000/svg">
<g clip-path="url(#clip0_84_4419)">
<path d="M17.9633 35.9267C27.8842 35.9267 35.9267 27.8842 35.9267 17.9633C35.9267 8.04246 27.8842 0 17.9633 0C8.04246 0 0 8.04246 0 17.9633C0 27.8842 8.04246 35.9267 17.9633 35.9267Z" fill="#D9D9D9"/>
<path fill-rule="evenodd" clip-rule="evenodd" d="M17.5498 8.06192C15.6611 8.27301 13.7653 9.05129 12.287 10.2225C11.7679 10.6338 10.9356 11.4794 10.5433 11.9942C7.54362 15.9302 7.87886 21.3876 11.3371 24.9175C12.8946 26.5073 14.8358 27.5138 17.0615 27.8854C17.7356 27.998 19.0938 28.0354 19.8556 27.9624C23.8207 27.5825 26.6368 25.3921 27.8857 21.7163C28.4516 20.0506 28.6377 18.2125 28.3973 16.663L28.3333 16.2506H23.5105H18.6878L18.702 18.1529L18.7162 20.0553L21.4937 20.069L24.2712 20.0828L24.1694 20.3729C23.8889 21.1727 23.2003 22.1842 22.5865 22.6982C21.3738 23.7136 19.7548 24.1958 18.1193 24.0286C15.1322 23.7232 12.8205 21.4381 12.5655 18.5387C12.2742 15.2268 14.7037 12.347 18.093 11.9864C19.4958 11.8372 20.8991 12.1864 22.1251 12.9898L22.7247 13.3826L24.147 11.9884L25.5693 10.5942L25.2624 10.3344C25.0937 10.1915 24.6808 9.89407 24.3449 9.67335C22.3843 8.38497 19.9099 7.79814 17.5498 8.06192Z" fill="white"/>
</g>
<defs>
<clipPath id="clip0_84_4419">
<rect width="36" height="36" fill="white"/>
</clipPath>
</defs>
</svg>
