<svg width="28" height="21" viewBox="0 0 28 21" fill="none" xmlns="http://www.w3.org/2000/svg">
<g clip-path="url(#clip0_208_199)">
<path d="M5.00429 20.6223V19.2949C5.00429 18.786 4.67382 18.4542 4.10729 18.4542C3.82403 18.4542 3.51717 18.5427 3.30472 18.8303C3.13948 18.5869 2.90343 18.4542 2.54935 18.4542C2.3133 18.4542 2.07725 18.5205 1.88841 18.7639V18.4984H1.3927V20.6223H1.88841V19.4497C1.88841 19.0736 2.10085 18.8966 2.43133 18.8966C2.7618 18.8966 2.92703 19.0958 2.92703 19.4497V20.6223H3.42274V19.4497C3.42274 19.0736 3.65879 18.8966 3.96566 18.8966C4.29613 18.8966 4.46137 19.0958 4.46137 19.4497V20.6223H5.00429ZM12.3455 18.4984H11.5429V17.8568H11.0472V18.4984H10.5987V18.9188H11.0472V19.8922C11.0472 20.3789 11.2596 20.6666 11.8262 20.6666C12.0386 20.6666 12.2747 20.6002 12.4399 20.5117L12.2983 20.1135C12.1566 20.202 11.9914 20.2241 11.8734 20.2241C11.6373 20.2241 11.5429 20.0913 11.5429 19.8701V18.9188H12.3455V18.4984ZM16.5472 18.4542C16.2639 18.4542 16.0751 18.5869 15.9571 18.7639V18.4984H15.4614V20.6223H15.9571V19.4276C15.9571 19.0736 16.1223 18.8745 16.4292 18.8745C16.5236 18.8745 16.6416 18.8966 16.736 18.9188L16.8777 18.4763C16.7833 18.4542 16.6416 18.4542 16.5472 18.4542ZM10.1974 18.6754C9.96137 18.5205 9.6309 18.4542 9.27682 18.4542C8.7103 18.4542 8.33261 18.7197 8.33261 19.14C8.33261 19.494 8.61587 19.6931 9.11158 19.7595L9.34763 19.7816C9.60729 19.8259 9.74892 19.8922 9.74892 20.0028C9.74892 20.1577 9.56008 20.2683 9.22961 20.2683C8.89913 20.2683 8.63948 20.1577 8.47425 20.0471L8.23819 20.4011C8.49785 20.5781 8.85193 20.6666 9.20601 20.6666C9.86695 20.6666 10.2446 20.379 10.2446 19.9807C10.2446 19.6046 9.93776 19.4055 9.46566 19.3391L9.22961 19.317C9.01716 19.2949 8.85193 19.2506 8.85193 19.1179C8.85193 18.963 9.01716 18.8745 9.27682 18.8745C9.56008 18.8745 9.84334 18.9851 9.98497 19.0515L10.1974 18.6754ZM23.3691 18.4542C23.0858 18.4542 22.897 18.5869 22.779 18.7639V18.4984H22.2833V20.6223H22.779V19.4276C22.779 19.0736 22.9442 18.8745 23.2511 18.8745C23.3455 18.8745 23.4635 18.8966 23.5579 18.9188L23.6996 18.4763C23.6051 18.4542 23.4635 18.4542 23.3691 18.4542ZM17.0429 19.5604C17.0429 20.202 17.515 20.6666 18.2468 20.6666C18.5772 20.6666 18.8133 20.6002 19.0493 20.4232L18.8133 20.0471C18.6245 20.1798 18.4356 20.2462 18.2232 20.2462C17.8219 20.2462 17.5386 19.9807 17.5386 19.5604C17.5386 19.1621 17.8219 18.8967 18.2232 18.8745C18.4356 18.8745 18.6245 18.9409 18.8133 19.0736L19.0493 18.6975C18.8133 18.5205 18.5772 18.4542 18.2468 18.4542C17.515 18.4542 17.0429 18.9188 17.0429 19.5604ZM21.6223 19.5604V18.4984H21.1266V18.7639C20.9614 18.5648 20.7253 18.4542 20.4185 18.4542C19.7811 18.4542 19.2854 18.9188 19.2854 19.5604C19.2854 20.202 19.7811 20.6666 20.4185 20.6666C20.7489 20.6666 20.985 20.5559 21.1266 20.3568V20.6223H21.6223V19.5604ZM19.8047 19.5604C19.8047 19.1843 20.0644 18.8745 20.4893 18.8745C20.8906 18.8745 21.1738 19.1621 21.1738 19.5604C21.1738 19.9365 20.8906 20.2462 20.4893 20.2462C20.0644 20.2241 19.8047 19.9365 19.8047 19.5604ZM13.8798 18.4542C13.2189 18.4542 12.7468 18.8966 12.7468 19.5604C12.7468 20.2241 13.2189 20.6666 13.9034 20.6666C14.2339 20.6666 14.5644 20.5781 14.824 20.379L14.588 20.0471C14.3991 20.1798 14.1631 20.2683 13.927 20.2683C13.6202 20.2683 13.3133 20.1356 13.2425 19.7595H14.9184C14.9184 19.6931 14.9184 19.6489 14.9184 19.5825C14.9421 18.8966 14.5172 18.4542 13.8798 18.4542ZM13.8798 18.8524C14.1867 18.8524 14.3991 19.0294 14.4463 19.3613H13.2661C13.3133 19.0736 13.5257 18.8524 13.8798 18.8524ZM26.1781 19.5604V17.6577H25.6824V18.7639C25.5172 18.5648 25.2811 18.4542 24.9742 18.4542C24.3369 18.4542 23.8412 18.9188 23.8412 19.5604C23.8412 20.202 24.3369 20.6666 24.9742 20.6666C25.3047 20.6666 25.5408 20.5559 25.6824 20.3568V20.6223H26.1781V19.5604ZM24.3605 19.5604C24.3605 19.1843 24.6202 18.8745 25.0451 18.8745C25.4463 18.8745 25.7296 19.1621 25.7296 19.5604C25.7296 19.9365 25.4463 20.2462 25.0451 20.2462C24.6202 20.2241 24.3605 19.9365 24.3605 19.5604ZM7.7897 19.5604V18.4984H7.29399V18.7639C7.12875 18.5648 6.8927 18.4542 6.58583 18.4542C5.94849 18.4542 5.45278 18.9188 5.45278 19.5604C5.45278 20.202 5.94849 20.6666 6.58583 20.6666C6.91631 20.6666 7.15236 20.5559 7.29399 20.3568V20.6223H7.7897V19.5604ZM5.94849 19.5604C5.94849 19.1843 6.20815 18.8745 6.63304 18.8745C7.03433 18.8745 7.31759 19.1621 7.31759 19.5604C7.31759 19.9365 7.03433 20.2462 6.63304 20.2462C6.20815 20.2241 5.94849 19.9365 5.94849 19.5604Z" fill="black"/>
<path d="M17.4678 2.37012H10.0322V14.8922H17.4678V2.37012Z" fill="#FF5F00"/>
<path d="M10.5043 8.63111C10.5043 6.08686 11.779 3.83022 13.7382 2.37005C12.2983 1.3081 10.4807 0.666504 8.49786 0.666504C3.80043 0.666504 0 4.22845 0 8.63111C0 13.0338 3.80043 16.5957 8.49786 16.5957C10.4807 16.5957 12.2983 15.9541 13.7382 14.8922C11.779 13.4541 10.5043 11.1754 10.5043 8.63111Z" fill="#EB001B"/>
<path d="M27.5 8.63111C27.5 13.0338 23.6996 16.5957 19.0022 16.5957C17.0193 16.5957 15.2017 15.9541 13.7618 14.8922C15.7446 13.432 16.9957 11.1754 16.9957 8.63111C16.9957 6.08686 15.721 3.83022 13.7618 2.37005C15.2017 1.3081 17.0193 0.666504 19.0022 0.666504C23.6996 0.666504 27.5 4.25058 27.5 8.63111Z" fill="#F79E1B"/>
</g>
<defs>
<clipPath id="clip0_208_199">
<rect width="27.5" height="20" fill="white" transform="translate(0 0.666504)"/>
</clipPath>
</defs>
</svg>
