<svg width="69" height="21" viewBox="0 0 69 21" fill="none" xmlns="http://www.w3.org/2000/svg">
<g clip-path="url(#clip0_208_186)">
<path fill-rule="evenodd" clip-rule="evenodd" d="M18.5933 0.666504V0.675049C18.5848 0.675049 15.8981 0.666504 15.1817 3.23843C14.525 5.59675 12.6742 12.1077 12.623 12.2872H12.1112C12.1112 12.2872 10.2178 5.63092 9.55254 3.22989C8.83609 0.65796 6.14092 0.666504 6.14092 0.666504H0V20.2337H6.14092V8.613H6.39679H6.65266L10.2349 20.2337H14.4994L18.0816 8.62154H18.5933V20.2337H24.7342V0.666504H18.5933Z" fill="#006845"/>
<path fill-rule="evenodd" clip-rule="evenodd" d="M41.0247 0.666504C41.0247 0.666504 39.2251 0.828852 38.3807 2.71721L34.0309 12.2872H33.5192V0.666504H27.3782V20.2337H33.178C33.178 20.2337 35.0629 20.0628 35.9073 18.183L40.1718 8.61299H40.6836V20.2337H46.8245V0.666504H41.0247Z" fill="#006845"/>
<path fill-rule="evenodd" clip-rule="evenodd" d="M49.5538 9.55273V20.2335H55.6947V13.9959H62.3473C65.2472 13.9959 67.7036 12.1418 68.6162 9.55273H49.5538Z" fill="#006845"/>
<path fill-rule="evenodd" clip-rule="evenodd" d="M62.3473 0.666504H48.6923C49.3746 4.39196 52.1636 7.38257 55.7714 8.35666C56.5902 8.57882 57.4517 8.69844 58.3387 8.69844H68.8635C68.9573 8.25412 69 7.80126 69 7.3313C69 3.64857 66.0233 0.666504 62.3473 0.666504Z" fill="url(#paint0_linear_208_186)"/>
</g>
<defs>
<linearGradient id="paint0_linear_208_186" x1="48.694" y1="4.68247" x2="69" y2="4.68247" gradientUnits="userSpaceOnUse">
<stop offset="0.3" stop-color="#00B4E6"/>
<stop offset="1" stop-color="#0062E4"/>
</linearGradient>
<clipPath id="clip0_208_186">
<rect width="69" height="19.5672" fill="white" transform="translate(0 0.666504)"/>
</clipPath>
</defs>
</svg>
