<svg width="69" height="20" viewBox="0 0 69 20" fill="none" xmlns="http://www.w3.org/2000/svg">
<g clip-path="url(#clip0_215_6923)">
<path fill-rule="evenodd" clip-rule="evenodd" d="M18.5933 3.72282e-07V0.00854499C18.5848 0.00854499 15.8981 3.25951e-07 15.1817 2.57193C14.525 4.93024 12.6742 11.4412 12.623 11.6207H12.1112C12.1112 11.6207 10.2178 4.96442 9.55254 2.56338C8.83609 -0.00854432 6.14092 3.72282e-07 6.14092 3.72282e-07H0V19.5672H6.14092V7.94649H6.39679H6.65266L10.2349 19.5672H14.4994L18.0816 7.95504H18.5933V19.5672H24.7342V3.72282e-07H18.5933Z" fill="#006845"/>
<path fill-rule="evenodd" clip-rule="evenodd" d="M41.0247 0C41.0247 0 39.2251 0.162348 38.3807 2.05071L34.0309 11.6207H33.5192V0H27.3782V19.5672H33.178C33.178 19.5672 35.0629 19.3963 35.9073 17.5165L40.1718 7.94649H40.6836V19.5672H46.8245V0H41.0247Z" fill="#006845"/>
<path fill-rule="evenodd" clip-rule="evenodd" d="M49.5538 8.88623V19.567H55.6947V13.3294H62.3473C65.2472 13.3294 67.7036 11.4752 68.6162 8.88623H49.5538Z" fill="#006845"/>
<path fill-rule="evenodd" clip-rule="evenodd" d="M62.3473 0H48.6923C49.3746 3.72545 52.1636 6.71607 55.7714 7.69015C56.5902 7.91231 57.4517 8.03194 58.3387 8.03194H68.8635C68.9573 7.58762 69 7.13475 69 6.6648C69 2.98207 66.0233 0 62.3473 0Z" fill="#00A3D0"/>
</g>
<defs>
<clipPath id="clip0_215_6923">
<rect width="69" height="19.5672" fill="white"/>
</clipPath>
</defs>
</svg>
