<svg width="16" height="16" viewBox="0 0 16 16" fill="none" xmlns="http://www.w3.org/2000/svg">
<path d="M8.01307 1.93994C5.8064 1.93994 4.01307 3.73327 4.01307 5.93994V7.86661C4.01307 8.27328 3.83974 8.89328 3.63307 9.23994L2.8664 10.5133C2.39307 11.2999 2.71974 12.1733 3.5864 12.4666C6.45974 13.4266 9.55974 13.4266 12.4331 12.4666C13.2397 12.1999 13.5931 11.2466 13.1531 10.5133L12.3864 9.23994C12.1864 8.89328 12.0131 8.27328 12.0131 7.86661V5.93994C12.0131 3.73994 10.2131 1.93994 8.01307 1.93994Z" stroke="white" stroke-width="1.5" stroke-miterlimit="10" stroke-linecap="round"/>
<path d="M9.24662 2.13346C9.03995 2.07346 8.82662 2.02679 8.60662 2.00012C7.96662 1.92012 7.35329 1.96679 6.77995 2.13346C6.97329 1.64012 7.45329 1.29346 8.01329 1.29346C8.57329 1.29346 9.05329 1.64012 9.24662 2.13346Z" stroke="white" stroke-width="1.5" stroke-miterlimit="10" stroke-linecap="round" stroke-linejoin="round"/>
<path d="M10.013 12.7065C10.013 13.8065 9.11302 14.7065 8.01302 14.7065C7.46635 14.7065 6.95968 14.4799 6.59968 14.1199C6.23968 13.7599 6.01302 13.2532 6.01302 12.7065" stroke="white" stroke-width="1.5" stroke-miterlimit="10"/>
</svg>
