<svg width="59" height="20" viewBox="0 0 59 20" fill="none" xmlns="http://www.w3.org/2000/svg">
<g clip-path="url(#clip0_208_196)">
<path d="M38.3639 0.666371C34.1813 0.666371 30.444 2.82423 30.444 6.81197C30.444 11.3855 37.0712 11.6999 37.0712 13.998C37.0712 14.9661 35.958 15.8302 34.0564 15.8302C32.4081 15.8195 30.788 15.4038 29.3398 14.6201L28.4765 18.644C30.1997 19.3208 32.0358 19.6676 33.8882 19.6664C38.4617 19.6664 42.0672 17.4045 42.0672 13.3466C42.0672 8.51518 35.4104 8.20756 35.4104 6.07685C35.4104 5.31911 36.3192 4.49352 38.2208 4.49352C39.5636 4.51138 40.8874 4.8112 42.1058 5.37339L42.951 1.48744C41.4863 0.933074 39.9309 0.654651 38.3639 0.666371ZM0.10224 0.960416L0 1.54625C1.14104 1.76692 2.26018 2.08786 3.34429 2.5053C5.38904 3.23816 5.5299 3.66566 5.87296 4.9934L9.61712 19.3655H14.6381L22.3627 0.960416H17.3644L12.3957 13.4733L10.3669 2.86721C10.1806 1.65256 9.23089 0.960416 8.09492 0.960416H0.10224ZM24.3847 0.960416L20.4565 19.3655H25.2276L29.1422 0.960416H24.3711H24.3847ZM51.0209 0.960416C49.869 0.960416 49.2602 1.5734 48.8126 2.6478L41.815 19.3655H46.8133L47.7811 16.5789H53.8813L54.4697 19.3655H58.8886L55.0263 0.960416H51.0209ZM51.673 5.93661L53.1565 12.8422H49.1807L51.6798 5.93661H51.673Z" fill="#312A5E"/>
</g>
<defs>
<clipPath id="clip0_208_196">
<rect width="58.9" height="19" fill="white" transform="translate(0 0.666504)"/>
</clipPath>
</defs>
</svg>
