<svg width="36" height="36" viewBox="0 0 36 36" fill="none" xmlns="http://www.w3.org/2000/svg">
<g id="Yandex_znak 1" clip-path="url(#clip0_84_4423)">
<path id="Vector" d="M18.0004 35.9638C27.9213 35.9638 35.9638 27.9213 35.9638 18.0004C35.9638 8.07957 27.9213 0.0371094 18.0004 0.0371094C8.07957 0.0371094 0.0371094 8.07957 0.0371094 18.0004C0.0371094 27.9213 8.07957 35.9638 18.0004 35.9638Z" fill="#D9D9D9"/>
<path id="Glyph" d="M24.129 28H20.8075V11.5719H19.3278C16.6155 11.5719 15.1948 12.928 15.1948 14.9524C15.1948 17.2492 16.1747 18.3133 18.2019 19.6694L19.8725 20.7953L15.0713 27.9972H11.4998L15.8209 21.5675C13.3361 19.793 11.9378 18.0606 11.9378 15.1377C11.9378 11.4849 14.4844 9 19.3053 9H24.1066V27.9944H24.129V28Z" fill="white"/>
</g>
<defs>
<clipPath id="clip0_84_4423">
<rect width="36" height="36" fill="white"/>
</clipPath>
</defs>
</svg>
