<svg width="25" height="25" viewBox="0 0 25 25" fill="none" xmlns="http://www.w3.org/2000/svg">
<path d="M14 9.75H2.5C2.09 9.75 1.75 9.41 1.75 9C1.75 8.59 2.09 8.25 2.5 8.25H14C14.41 8.25 14.75 8.59 14.75 9C14.75 9.41 14.41 9.75 14 9.75Z" fill="#0D4587"/>
<path d="M8.5 17.75H6.5C6.09 17.75 5.75 17.41 5.75 17C5.75 16.59 6.09 16.25 6.5 16.25H8.5C8.91 16.25 9.25 16.59 9.25 17C9.25 17.41 8.91 17.75 8.5 17.75Z" fill="#0D4587"/>
<path d="M15 17.75H11C10.59 17.75 10.25 17.41 10.25 17C10.25 16.59 10.59 16.25 11 16.25H15C15.41 16.25 15.75 16.59 15.75 17C15.75 17.41 15.41 17.75 15 17.75Z" fill="#0D4587"/>
<path d="M18.06 21.75H6.94C2.96 21.75 1.75 20.55 1.75 16.61V8.39C1.75 4.45 2.96 3.25 6.94 3.25H14C14.41 3.25 14.75 3.59 14.75 4C14.75 4.41 14.41 4.75 14 4.75H6.94C3.8 4.75 3.25 5.29 3.25 8.39V16.6C3.25 19.7 3.8 20.24 6.94 20.24H18.05C21.19 20.24 21.74 19.7 21.74 16.6V12.52C21.74 12.11 22.08 11.77 22.49 11.77C22.9 11.77 23.24 12.11 23.24 12.52V16.6C23.25 20.55 22.04 21.75 18.06 21.75Z" fill="#0D4587"/>
<path d="M22.5 7.5H17C16.59 7.5 16.25 7.16 16.25 6.75C16.25 6.34 16.59 6 17 6H22.5C22.91 6 23.25 6.34 23.25 6.75C23.25 7.16 22.91 7.5 22.5 7.5Z" fill="#0D4587"/>
<path d="M19.75 10.25C19.34 10.25 19 9.91 19 9.5V4C19 3.59 19.34 3.25 19.75 3.25C20.16 3.25 20.5 3.59 20.5 4V9.5C20.5 9.91 20.16 10.25 19.75 10.25Z" fill="#0D4587"/>
</svg>
