<svg width="52" height="53" viewBox="0 0 52 53" fill="none" xmlns="http://www.w3.org/2000/svg">
<path d="M25.4949 18.8795C25.7739 18.5955 26.2261 18.5955 26.5051 18.8795L30.7908 23.2432C31.0697 23.5272 31.0697 23.9877 30.7908 24.2717C30.5118 24.5557 30.0596 24.5557 29.7806 24.2717L26.7143 21.1496V33.9392C26.7143 34.3409 26.3945 34.6665 26 34.6665C25.6055 34.6665 25.2857 34.3409 25.2857 33.9392V21.1496L22.2194 24.2717C21.9404 24.5557 21.4882 24.5557 21.2092 24.2717C20.9303 23.9877 20.9303 23.5272 21.2092 23.2432L25.4949 18.8795Z" fill="#20438F" fill-opacity="0.08"/>
<rect x="0.5" y="1.1665" width="51" height="51" rx="25.5" stroke="#20438F" stroke-opacity="0.08"/>
</svg>
