<svg width="16" height="17" viewBox="0 0 16 17" fill="none" xmlns="http://www.w3.org/2000/svg">
<path d="M6.96681 5.47998C6.84014 5.47998 6.71346 5.43333 6.61346 5.33333L4.48679 3.20667L2.36012 5.33333C2.16679 5.52667 1.84679 5.52667 1.65345 5.33333C1.46012 5.14 1.46012 4.82 1.65345 4.62667L4.13347 2.14665C4.22681 2.05331 4.35345 2 4.48679 2C4.62012 2 4.74681 2.05331 4.84014 2.14665L7.32012 4.62667C7.51345 4.82 7.51345 5.14 7.32012 5.33333C7.22012 5.43333 7.09347 5.47998 6.96681 5.47998Z" fill="#777777"/>
<path d="M4.48666 15C4.21333 15 3.98666 14.7733 3.98666 14.5V2.5C3.98666 2.22667 4.21333 2 4.48666 2C4.76 2 4.98666 2.22667 4.98666 2.5V14.5C4.98666 14.7733 4.76 15 4.48666 15Z" fill="#777777"/>
<path d="M11.52 14.9998C11.3867 14.9998 11.26 14.9465 11.1666 14.8532L8.68666 12.3731C8.49332 12.1798 8.49332 11.8598 8.68666 11.6665C8.87999 11.4732 9.19999 11.4732 9.39332 11.6665L11.52 13.7932L13.6466 11.6665C13.84 11.4732 14.16 11.4732 14.3533 11.6665C14.5467 11.8598 14.5467 12.1798 14.3533 12.3731L11.8733 14.8532C11.78 14.9465 11.6467 14.9998 11.52 14.9998Z" fill="#777777"/>
<path d="M11.5133 15C11.24 15 11.0133 14.7733 11.0133 14.5V2.5C11.0133 2.22667 11.24 2 11.5133 2C11.7867 2 12.0133 2.22667 12.0133 2.5V14.5C12.0133 14.7733 11.7933 15 11.5133 15Z" fill="#777777"/>
</svg>
