<svg width="24" height="24" viewBox="0 0 24 24" fill="none" xmlns="http://www.w3.org/2000/svg">
<path d="M8.50049 14.25C8.50049 16.17 10.0805 17.75 12.0005 17.75C13.9205 17.75 15.5005 16.17 15.5005 14.25" stroke="#777777" stroke-width="1.5" stroke-miterlimit="10" stroke-linecap="round" stroke-linejoin="round"/>
<path d="M8.80994 1.99951L5.18994 5.62951" stroke="#777777" stroke-width="1.5" stroke-miterlimit="10" stroke-linecap="round" stroke-linejoin="round"/>
<path d="M15.1904 1.99951L18.8104 5.62951" stroke="#777777" stroke-width="1.5" stroke-miterlimit="10" stroke-linecap="round" stroke-linejoin="round"/>
<path d="M1.99951 7.85059C1.99951 6.00059 2.98951 5.85059 4.21951 5.85059H19.7795C21.0095 5.85059 21.9995 6.00059 21.9995 7.85059C21.9995 10.0006 21.0095 9.85059 19.7795 9.85059H4.21951C2.98951 9.85059 1.99951 10.0006 1.99951 7.85059Z" stroke="#777777" stroke-width="1.5"/>
<path d="M3.49951 10.0005L4.90951 18.6405C5.22951 20.5805 5.99951 22.0005 8.85951 22.0005H14.8895C17.9995 22.0005 18.4595 20.6405 18.8195 18.7605L20.4995 10.0005" stroke="#777777" stroke-width="1.5" stroke-linecap="round"/>
</svg>
