<svg width="16" height="16" viewBox="0 0 16 16" fill="none" xmlns="http://www.w3.org/2000/svg">
<g id="icon/document">
<g id="note-2">
<path id="Vector" d="M14.4398 6.96033L13.7865 9.747C13.2265 12.1537 12.1198 13.127 10.0398 12.927C9.70646 12.9003 9.34646 12.8403 8.95979 12.747L7.83979 12.4803C5.05979 11.8203 4.19979 10.447 4.85313 7.66033L5.50646 4.867C5.63979 4.30033 5.79979 3.807 5.99979 3.40033C6.77979 1.787 8.10646 1.35366 10.3331 1.88033L11.4465 2.14033C14.2398 2.79366 15.0931 4.17366 14.4398 6.96033Z" stroke="#777777" stroke-width="1.5" stroke-linecap="round" stroke-linejoin="round"/>
<path id="Vector_2" d="M10.0402 12.9271C9.62689 13.2071 9.10689 13.4404 8.47356 13.6471L7.42023 13.9937C4.77356 14.8471 3.38023 14.1337 2.52023 11.4871L1.66689 8.85372C0.813561 6.20706 1.52023 4.80706 4.16689 3.95372L5.22023 3.60706C5.49356 3.52039 5.75356 3.44706 6.00023 3.40039C5.80023 3.80706 5.64023 4.30039 5.50689 4.86706L4.85356 7.66039C4.20023 10.4471 5.06023 11.8204 7.84023 12.4804L8.96023 12.7471C9.34689 12.8404 9.70689 12.9004 10.0402 12.9271Z" stroke="#777777" stroke-width="1.5" stroke-linecap="round" stroke-linejoin="round"/>
<path id="Vector_3" d="M8.42676 5.68652L11.6601 6.50652" stroke="#777777" stroke-width="1.5" stroke-linecap="round" stroke-linejoin="round"/>
<path id="Vector_4" d="M7.77344 8.2666L9.70677 8.75994" stroke="#777777" stroke-width="1.5" stroke-linecap="round" stroke-linejoin="round"/>
</g>
</g>
</svg>
