<svg width="32" height="34" viewBox="0 0 32 34" fill="none" xmlns="http://www.w3.org/2000/svg">
<path d="M16 13.8695C15.8667 13.8695 15.7467 13.8417 15.6133 13.7861C15.24 13.633 15 13.2435 15 12.8261V3.08694C15 2.5165 15.4533 2.04346 16 2.04346C16.5467 2.04346 17 2.5165 17 3.08694V10.3078L17.96 9.30607C18.3467 8.90259 18.9867 8.90259 19.3733 9.30607C19.76 9.70954 19.76 10.3774 19.3733 10.7808L16.7067 13.5635C16.52 13.7582 16.2667 13.8695 16 13.8695Z" fill="#094ABA"/>
<path d="M16.0007 13.87C15.7474 13.87 15.4941 13.7726 15.2941 13.5639L12.6274 10.7813C12.2407 10.3778 12.2407 9.70999 12.6274 9.30651C13.0141 8.90304 13.6541 8.90304 14.0407 9.30651L16.7074 12.0891C17.0941 12.4926 17.0941 13.1604 16.7074 13.5639C16.5074 13.7726 16.2541 13.87 16.0007 13.87Z" fill="#094ABA"/>
<path d="M18.3473 24.9998H13.6406C12.2406 24.9998 10.9873 24.1929 10.3606 22.885L8.80062 19.6294C8.74729 19.5042 8.62729 19.4346 8.50729 19.4346H2.64062C2.09396 19.4346 1.64062 18.9616 1.64062 18.3911C1.64062 17.8207 2.09396 17.3477 2.64062 17.3477H8.52063C9.41396 17.3477 10.214 17.8624 10.614 18.6972L12.174 21.9529C12.454 22.5511 13.0273 22.9129 13.6673 22.9129H18.374C19.014 22.9129 19.5873 22.5511 19.8673 21.9529L21.4273 18.6972C21.8273 17.8624 22.6273 17.3477 23.5206 17.3477H29.334C29.8806 17.3477 30.334 17.8207 30.334 18.3911C30.334 18.9616 29.8806 19.4346 29.334 19.4346H23.5206C23.3873 19.4346 23.2806 19.5042 23.2273 19.6294L21.6673 22.885C21.0006 24.1929 19.7473 24.9998 18.3473 24.9998Z" fill="#094ABA"/>
<path d="M19.9998 31.9562H11.9998C4.75984 31.9562 1.6665 28.7284 1.6665 21.1736V15.6084C1.6665 9.08314 3.9865 5.81358 9.1865 5.02054C9.7465 4.93706 10.2398 5.32662 10.3198 5.89706C10.3998 6.46749 10.0265 6.99619 9.47984 7.07967C5.29317 7.71967 3.6665 10.1127 3.6665 15.6084V21.1736C3.6665 27.5875 5.85317 29.8692 11.9998 29.8692H19.9998C26.1465 29.8692 28.3332 27.5875 28.3332 21.1736V15.6084C28.3332 10.1127 26.7065 7.71967 22.5198 7.07967C21.9732 6.99619 21.5998 6.46749 21.6798 5.89706C21.7598 5.32662 22.2665 4.93706 22.8132 5.02054C28.0132 5.81358 30.3332 9.08314 30.3332 15.6084V21.1736C30.3332 28.7284 27.2398 31.9562 19.9998 31.9562Z" fill="#094ABA"/>
</svg>
