<svg width="22" height="22" viewBox="0 0 22 22" fill="none" xmlns="http://www.w3.org/2000/svg">
<g id="Filters">
<path id="Vector" d="M17.4163 1.83337H4.58301C3.85366 1.83337 3.15419 2.12311 2.63846 2.63883C2.12274 3.15456 1.83301 3.85403 1.83301 4.58337V5.65587C1.83288 6.0344 1.91089 6.40889 2.06217 6.75587V6.81087C2.19168 7.1051 2.37512 7.37248 2.60301 7.59921L8.24967 13.2092V19.25C8.24936 19.4058 8.28876 19.5591 8.36414 19.6954C8.43952 19.8318 8.5484 19.9466 8.68051 20.0292C8.82639 20.1196 8.99472 20.1673 9.16634 20.1667C9.30984 20.1658 9.45113 20.1313 9.57884 20.0659L13.2455 18.2325C13.3967 18.1564 13.5238 18.0398 13.6128 17.8958C13.7018 17.7518 13.7492 17.586 13.7497 17.4167V13.2092L19.3597 7.59921C19.5876 7.37248 19.771 7.1051 19.9005 6.81087V6.75587C20.0644 6.4116 20.1549 6.037 20.1663 5.65587V4.58337C20.1663 3.85403 19.8766 3.15456 19.3609 2.63883C18.8452 2.12311 18.1457 1.83337 17.4163 1.83337ZM12.1822 12.1825C12.0972 12.2682 12.03 12.3698 11.9844 12.4815C11.9388 12.5931 11.9156 12.7127 11.9163 12.8334V16.8484L10.083 17.765V12.8334C10.0837 12.7127 10.0606 12.5931 10.015 12.4815C9.96935 12.3698 9.90213 12.2682 9.81717 12.1825L4.95884 7.33337H17.0405L12.1822 12.1825ZM18.333 5.50004H3.66634V4.58337C3.66634 4.34026 3.76292 4.1071 3.93483 3.93519C4.10674 3.76328 4.33989 3.66671 4.58301 3.66671H17.4163C17.6595 3.66671 17.8926 3.76328 18.0645 3.93519C18.2364 4.1071 18.333 4.34026 18.333 4.58337V5.50004Z" fill="black"/>
</g>
</svg>
