<svg width="17" height="16" viewBox="0 0 17 16" fill="none" xmlns="http://www.w3.org/2000/svg">
<g id="vuesax/linear/gallery">
<g id="gallery">
<path id="Vector" d="M6.49967 14.6663H10.4997C13.833 14.6663 15.1663 13.333 15.1663 9.99967V5.99967C15.1663 2.66634 13.833 1.33301 10.4997 1.33301H6.49967C3.16634 1.33301 1.83301 2.66634 1.83301 5.99967V9.99967C1.83301 13.333 3.16634 14.6663 6.49967 14.6663Z" stroke="#777777" stroke-width="1.5" stroke-linecap="round" stroke-linejoin="round"/>
<path id="Vector_2" d="M6.50033 6.66667C7.23671 6.66667 7.83366 6.06971 7.83366 5.33333C7.83366 4.59695 7.23671 4 6.50033 4C5.76395 4 5.16699 4.59695 5.16699 5.33333C5.16699 6.06971 5.76395 6.66667 6.50033 6.66667Z" stroke="#777777" stroke-width="1.5" stroke-linecap="round" stroke-linejoin="round"/>
<path id="Vector_3" d="M2.28027 12.633L5.56694 10.4264C6.09361 10.073 6.85361 10.113 7.32694 10.5197L7.54694 10.713C8.06694 11.1597 8.90694 11.1597 9.42694 10.713L12.2003 8.33305C12.7203 7.88638 13.5603 7.88638 14.0803 8.33305L15.1669 9.26638" stroke="#777777" stroke-width="1.5" stroke-linecap="round" stroke-linejoin="round"/>
</g>
</g>
</svg>
