<svg width="17" height="17" viewBox="0 0 17 17" fill="none" xmlns="http://www.w3.org/2000/svg">
<path d="M1.0625 2.13393C1.0625 1.54219 1.54219 1.0625 2.13393 1.0625H4.27679C4.86852 1.0625 5.34821 1.54219 5.34821 2.13393V4.27679C5.34821 4.86852 4.86852 5.34821 4.27679 5.34821H2.13393C1.54219 5.34821 1.0625 4.86852 1.0625 4.27679V2.13393Z" fill="#333333"/>
<path d="M6.41964 2.13393C6.41964 1.54219 6.89934 1.0625 7.49107 1.0625H9.63393C10.2257 1.0625 10.7054 1.54219 10.7054 2.13393V4.27679C10.7054 4.86852 10.2257 5.34821 9.63393 5.34821H7.49107C6.89934 5.34821 6.41964 4.86852 6.41964 4.27679V2.13393Z" fill="#333333"/>
<path d="M11.7768 2.13393C11.7768 1.54219 12.2565 1.0625 12.8482 1.0625H14.9911C15.5828 1.0625 16.0625 1.54219 16.0625 2.13393V4.27679C16.0625 4.86852 15.5828 5.34821 14.9911 5.34821H12.8482C12.2565 5.34821 11.7768 4.86852 11.7768 4.27679V2.13393Z" fill="#333333"/>
<path d="M1.0625 7.49107C1.0625 6.89934 1.54219 6.41964 2.13393 6.41964H4.27679C4.86852 6.41964 5.34821 6.89934 5.34821 7.49107V9.63393C5.34821 10.2257 4.86852 10.7054 4.27679 10.7054H2.13393C1.54219 10.7054 1.0625 10.2257 1.0625 9.63393V7.49107Z" fill="#333333"/>
<path d="M6.41964 7.49107C6.41964 6.89934 6.89934 6.41964 7.49107 6.41964H9.63393C10.2257 6.41964 10.7054 6.89934 10.7054 7.49107V9.63393C10.7054 10.2257 10.2257 10.7054 9.63393 10.7054H7.49107C6.89934 10.7054 6.41964 10.2257 6.41964 9.63393V7.49107Z" fill="#333333"/>
<path d="M11.7768 7.49107C11.7768 6.89934 12.2565 6.41964 12.8482 6.41964H14.9911C15.5828 6.41964 16.0625 6.89934 16.0625 7.49107V9.63393C16.0625 10.2257 15.5828 10.7054 14.9911 10.7054H12.8482C12.2565 10.7054 11.7768 10.2257 11.7768 9.63393V7.49107Z" fill="#333333"/>
<path d="M1.0625 12.8482C1.0625 12.2565 1.54219 11.7768 2.13393 11.7768H4.27679C4.86852 11.7768 5.34821 12.2565 5.34821 12.8482V14.9911C5.34821 15.5828 4.86852 16.0625 4.27679 16.0625H2.13393C1.54219 16.0625 1.0625 15.5828 1.0625 14.9911V12.8482Z" fill="#333333"/>
<path d="M6.41964 12.8482C6.41964 12.2565 6.89934 11.7768 7.49107 11.7768H9.63393C10.2257 11.7768 10.7054 12.2565 10.7054 12.8482V14.9911C10.7054 15.5828 10.2257 16.0625 9.63393 16.0625H7.49107C6.89934 16.0625 6.41964 15.5828 6.41964 14.9911V12.8482Z" fill="#333333"/>
<path d="M11.7768 12.8482C11.7768 12.2565 12.2565 11.7768 12.8482 11.7768H14.9911C15.5828 11.7768 16.0625 12.2565 16.0625 12.8482V14.9911C16.0625 15.5828 15.5828 16.0625 14.9911 16.0625H12.8482C12.2565 16.0625 11.7768 15.5828 11.7768 14.9911V12.8482Z" fill="#333333"/>
</svg>
