<svg width="24" height="24" viewBox="0 0 24 24" fill="none" xmlns="http://www.w3.org/2000/svg">
<path d="M8.99951 21.9995H14.9995C19.9995 21.9995 21.9995 19.9995 21.9995 14.9995V8.99951C21.9995 3.99951 19.9995 1.99951 14.9995 1.99951H8.99951C3.99951 1.99951 1.99951 3.99951 1.99951 8.99951V14.9995C1.99951 19.9995 3.99951 21.9995 8.99951 21.9995Z" stroke="#777777" stroke-width="1.5" stroke-linecap="round" stroke-linejoin="round"/>
<path d="M9.00049 10C10.1051 10 11.0005 9.10457 11.0005 8C11.0005 6.89543 10.1051 6 9.00049 6C7.89592 6 7.00049 6.89543 7.00049 8C7.00049 9.10457 7.89592 10 9.00049 10Z" stroke="#777777" stroke-width="1.5" stroke-linecap="round" stroke-linejoin="round"/>
<path d="M2.67041 18.9496L7.60041 15.6396C8.39041 15.1096 9.53041 15.1696 10.2404 15.7796L10.5704 16.0696C11.3504 16.7396 12.6104 16.7396 13.3904 16.0696L17.5504 12.4996C18.3304 11.8296 19.5904 11.8296 20.3704 12.4996L22.0004 13.8996" stroke="#777777" stroke-width="1.5" stroke-linecap="round" stroke-linejoin="round"/>
</svg>
