<svg width="17" height="15" viewBox="0 0 17 15" fill="none" xmlns="http://www.w3.org/2000/svg">
<path fill-rule="evenodd" clip-rule="evenodd" d="M1 9.64286H3C3.55 9.64286 4 9.16071 4 8.57143V6.42857C4 5.83929 3.55 5.35714 3 5.35714H1C0.45 5.35714 0 5.83929 0 6.42857V8.57143C0 9.16071 0.45 9.64286 1 9.64286ZM1 15H3C3.55 15 4 14.5179 4 13.9286V11.7857C4 11.1964 3.55 10.7143 3 10.7143H1C0.45 10.7143 0 11.1964 0 11.7857V13.9286C0 14.5179 0.45 15 1 15ZM1 4.28571H3C3.55 4.28571 4 3.80357 4 3.21429V1.07143C4 0.482143 3.55 0 3 0H1C0.45 0 0 0.482143 0 1.07143V3.21429C0 3.80357 0.45 4.28571 1 4.28571ZM6 9.64286H16C16.55 9.64286 17 9.16071 17 8.57143V6.42857C17 5.83929 16.55 5.35714 16 5.35714H6C5.45 5.35714 5 5.83929 5 6.42857V8.57143C5 9.16071 5.45 9.64286 6 9.64286ZM6 15H16C16.55 15 17 14.5179 17 13.9286V11.7857C17 11.1964 16.55 10.7143 16 10.7143H6C5.45 10.7143 5 11.1964 5 11.7857V13.9286C5 14.5179 5.45 15 6 15ZM5 1.07143V3.21429C5 3.80357 5.45 4.28571 6 4.28571H16C16.55 4.28571 17 3.80357 17 3.21429V1.07143C17 0.482143 16.55 0 16 0H6C5.45 0 5 0.482143 5 1.07143Z" fill="#333333"/>
</svg>
