<svg width="17" height="16" viewBox="0 0 17 16" fill="none" xmlns="http://www.w3.org/2000/svg">
<path d="M5.91699 9.5C5.91699 10.78 6.97033 11.8333 8.25033 11.8333C9.53033 11.8333 10.5837 10.78 10.5837 9.5" stroke="#777777" stroke-width="1.5" stroke-miterlimit="10" stroke-linecap="round" stroke-linejoin="round"/>
<path d="M6.12329 1.33301L3.70996 3.75301" stroke="#777777" stroke-width="1.5" stroke-miterlimit="10" stroke-linecap="round" stroke-linejoin="round"/>
<path d="M10.377 1.33301L12.7903 3.75301" stroke="#777777" stroke-width="1.5" stroke-miterlimit="10" stroke-linecap="round" stroke-linejoin="round"/>
<path d="M1.58301 5.23372C1.58301 4.00039 2.24301 3.90039 3.06301 3.90039H13.4363C14.2563 3.90039 14.9163 4.00039 14.9163 5.23372C14.9163 6.66706 14.2563 6.56706 13.4363 6.56706H3.06301C2.24301 6.56706 1.58301 6.66706 1.58301 5.23372Z" stroke="#777777" stroke-width="1.5"/>
<path d="M2.58301 6.66699L3.52301 12.427C3.73634 13.7203 4.24967 14.667 6.15634 14.667H10.1763C12.2497 14.667 12.5563 13.7603 12.7963 12.507L13.9163 6.66699" stroke="#777777" stroke-width="1.5" stroke-linecap="round"/>
</svg>
