<svg width="24" height="24" viewBox="0 0 24 24" fill="none" xmlns="http://www.w3.org/2000/svg">
<path d="M12.1601 10.8695C12.0601 10.8595 11.9401 10.8595 11.8301 10.8695C9.45006 10.7895 7.56006 8.83951 7.56006 6.43951C7.56006 3.98951 9.54006 1.99951 12.0001 1.99951C14.4501 1.99951 16.4401 3.98951 16.4401 6.43951C16.4301 8.83951 14.5401 10.7895 12.1601 10.8695Z" stroke="#777777" stroke-width="1.5" stroke-linecap="round" stroke-linejoin="round"/>
<path d="M7.16021 14.5605C4.74021 16.1805 4.74021 18.8205 7.16021 20.4305C9.91021 22.2705 14.4202 22.2705 17.1702 20.4305C19.5902 18.8105 19.5902 16.1705 17.1702 14.5605C14.4302 12.7305 9.92021 12.7305 7.16021 14.5605Z" stroke="#777777" stroke-width="1.5" stroke-linecap="round" stroke-linejoin="round"/>
</svg>
