<svg width="16" height="17" viewBox="0 0 16 17" fill="none" xmlns="http://www.w3.org/2000/svg">
<path d="M7.66668 15C3.90001 15 0.833344 11.9333 0.833344 8.16665C0.833344 4.39998 3.90001 1.33331 7.66668 1.33331C11.4333 1.33331 14.5 4.39998 14.5 8.16665C14.5 11.9333 11.4333 15 7.66668 15ZM7.66668 2.33331C4.44668 2.33331 1.83334 4.95331 1.83334 8.16665C1.83334 11.38 4.44668 14 7.66668 14C10.8867 14 13.5 11.38 13.5 8.16665C13.5 4.95331 10.8867 2.33331 7.66668 2.33331Z" fill="#777777"/>
<path d="M14.6667 15.6667C14.54 15.6667 14.4133 15.62 14.3133 15.52L12.98 14.1867C12.7867 13.9934 12.7867 13.6734 12.98 13.48C13.1733 13.2867 13.4933 13.2867 13.6867 13.48L15.02 14.8134C15.2133 15.0067 15.2133 15.3267 15.02 15.52C14.92 15.62 14.7933 15.6667 14.6667 15.6667Z" fill="#777777"/>
</svg>
