<svg width="24" height="25" viewBox="0 0 24 25" fill="none" xmlns="http://www.w3.org/2000/svg">
<path d="M18.4714 14.9391C17.9152 14.9411 17.3673 15.0749 16.8728 15.3298C16.3784 15.5846 15.9514 15.953 15.6268 16.4048L9.88341 13.582C9.99535 13.2308 10.0539 12.8648 10.0571 12.4963C10.0539 12.1277 9.99535 11.7617 9.88341 11.4106L15.6268 8.58766C16.1221 9.25957 16.8409 9.73277 17.6537 9.92221C18.4667 10.1116 19.3205 10.0049 20.0619 9.62114C20.8032 9.23738 21.3833 8.60181 21.6978 7.82864C22.0124 7.05548 22.041 6.19546 21.7783 5.40315C21.5155 4.61085 20.9788 3.93823 20.2647 3.50622C19.5504 3.07421 18.7055 2.91113 17.8817 3.04629C17.058 3.18146 16.3096 3.606 15.7709 4.24362C15.2322 4.88124 14.9386 5.6901 14.9428 6.52481C14.9454 6.70698 14.9636 6.8886 14.9971 7.06767L9.05827 10.0534C8.73322 9.7091 8.34103 9.43513 7.90592 9.24838C7.47082 9.06165 7.00204 8.96611 6.52856 8.96766C5.59273 8.96766 4.69523 9.33942 4.03349 10.0012C3.37176 10.6629 3 11.5604 3 12.4963C3 13.432 3.37176 14.3296 4.03349 14.9913C4.69523 15.6531 5.59273 16.0248 6.52856 16.0248C7.00204 16.0264 7.47082 15.9308 7.90592 15.7441C8.34103 15.5573 8.73322 15.2834 9.05827 14.9391L14.9971 17.9248C14.9629 18.1074 14.9448 18.2927 14.9428 18.4785C14.9428 19.1764 15.1498 19.8586 15.5375 20.4389C15.9252 21.0191 16.4763 21.4714 17.1211 21.7385C17.7658 22.0056 18.4753 22.0754 19.1597 21.9392C19.8443 21.8031 20.473 21.4671 20.9665 20.9736C21.4599 20.48 21.796 19.8513 21.9322 19.1669C22.0684 18.4824 21.9984 17.7729 21.7314 17.1281C21.4643 16.4834 21.0121 15.9323 20.4318 15.5446C19.8514 15.1569 19.1693 14.95 18.4714 14.95V14.9391ZM18.4714 4.62481C18.8472 4.62481 19.2146 4.73625 19.5269 4.94502C19.8394 5.15379 20.0829 5.45054 20.2268 5.79772C20.3705 6.1449 20.4082 6.52693 20.3349 6.89548C20.2615 7.26405 20.0806 7.6026 19.8149 7.86831C19.5492 8.13403 19.2107 8.31499 18.8421 8.3883C18.4735 8.46161 18.0915 8.42399 17.7443 8.28018C17.3971 8.13637 17.1004 7.89285 16.8916 7.58039C16.6828 7.26795 16.5714 6.9006 16.5714 6.52481C16.5742 6.02178 16.7753 5.54017 17.1311 5.18447C17.4868 4.82876 17.9684 4.62767 18.4714 4.62481ZM6.52856 14.3963C6.15278 14.3963 5.78544 14.2848 5.47298 14.076C5.16053 13.8672 4.917 13.5705 4.7732 13.2234C4.62939 12.8762 4.59176 12.4941 4.66508 12.1256C4.73839 11.757 4.91934 11.4185 5.18506 11.1527C5.45079 10.887 5.78932 10.706 6.15789 10.6328C6.52646 10.5595 6.90849 10.597 7.25567 10.7409C7.60284 10.8846 7.89958 11.1282 8.10835 11.4406C8.31712 11.7531 8.42856 12.1204 8.42856 12.4963C8.42572 12.9993 8.22462 13.4809 7.86892 13.8366C7.51321 14.1923 7.0316 14.3933 6.52856 14.3963ZM18.4714 20.3677C18.0956 20.3677 17.7282 20.2562 17.4159 20.0474C17.1034 19.8386 16.8599 19.5419 16.716 19.1948C16.5723 18.8476 16.5346 18.4655 16.6079 18.097C16.6812 17.7284 16.8622 17.3899 17.1279 17.1241C17.3936 16.8584 17.7321 16.6775 18.1007 16.6042C18.4693 16.5309 18.8513 16.5684 19.1985 16.7123C19.5457 16.8561 19.8424 17.0996 20.0512 17.412C20.26 17.7245 20.3714 18.0918 20.3714 18.4677C20.3686 18.9707 20.1675 19.4523 19.8117 19.808C19.456 20.1637 18.9744 20.3647 18.4714 20.3677Z" fill="#777777"/>
</svg>
