<svg width="24" height="25" viewBox="0 0 24 25" fill="none" xmlns="http://www.w3.org/2000/svg">
<path d="M12.3538 4.6801C13.2326 4.6665 14.1063 4.67456 14.979 4.6665C15.0318 5.6943 15.4015 6.74123 16.1538 7.46789C16.9046 8.21267 17.9667 8.55359 19 8.66891V11.3726C18.0316 11.3409 17.0587 11.1394 16.18 10.7225C15.7973 10.5493 15.4407 10.3262 15.0918 10.0981C15.0872 12.06 15.0998 14.0194 15.0792 15.9733C15.0268 16.9119 14.7171 17.8461 14.1712 18.6195C13.293 19.9072 11.7687 20.7466 10.2031 20.7728C9.24274 20.8277 8.28344 20.5659 7.46513 20.0834C6.109 19.2838 5.15473 17.8199 5.01574 16.2487C4.99963 15.9128 4.99409 15.5774 5.00768 15.2496C5.12854 13.9721 5.76053 12.7499 6.74149 11.9185C7.85338 10.9501 9.41094 10.4888 10.8693 10.7618C10.8829 11.7563 10.8431 12.7499 10.8431 13.7444C10.1769 13.5289 9.39835 13.5893 8.81622 13.9937C8.3912 14.2692 8.06841 14.6912 7.90021 15.1685C7.76123 15.509 7.80101 15.8871 7.80907 16.2487C7.9687 17.3505 9.02822 18.2766 10.1592 18.1764C10.9091 18.1683 11.6277 17.7333 12.0184 17.0962C12.1448 16.8731 12.2863 16.645 12.2939 16.3827C12.3599 15.1816 12.3337 13.9857 12.3417 12.7846C12.3473 10.0779 12.3337 7.37876 12.3543 4.6806L12.3538 4.6801Z" fill="#8A8A8A"/>
</svg>
