<svg width="30" height="25" viewBox="0 0 30 25" fill="none" xmlns="http://www.w3.org/2000/svg">
<path d="M26.8706 17.768C25.8905 16.1515 23.3656 14.2092 22.3232 13.3639C22.038 13.1325 22.0074 12.7321 22.2671 12.4762C24.2563 10.5174 25.8474 8.26664 26.395 6.90659C26.6366 6.30579 26.1365 5.671 25.4317 5.671H23.3847C22.71 5.671 22.3151 5.89293 22.1269 6.24631C20.4736 9.35078 19.0555 10.6943 18.0627 11.4796C17.5069 11.9194 16.6402 11.555 16.6402 10.8858C16.6402 9.59619 16.6402 7.92925 16.6402 6.74714C16.6402 6.17383 16.1286 5.70999 15.4975 5.70999L11.7579 5.671C11.2872 5.671 11.0183 6.15934 11.3008 6.50173L11.9183 7.31395C12.1506 7.59536 12.2761 7.93775 12.2761 8.28913L12.2728 11.9469C12.2728 12.5832 11.4312 12.8941 10.9316 12.4482C9.24122 10.9397 7.77451 7.85927 7.24652 6.38626C7.09379 5.95991 6.65798 5.672 6.1638 5.671L4.14728 5.6665C3.39075 5.6665 2.83766 6.32378 3.0433 6.98556C4.88582 12.9121 8.66632 18.5502 15.4037 19.1615C16.0675 19.2215 16.6402 18.7316 16.6402 18.1254V16.203C16.6402 15.6517 17.112 15.1778 17.7186 15.1638C17.7398 15.1633 17.7611 15.1633 17.7824 15.1633C19.5644 15.1633 21.5602 17.54 22.2583 18.6517C22.4591 18.9716 22.8343 19.1665 23.2401 19.1665H25.9526C26.7441 19.1665 27.2519 18.3973 26.8706 17.768Z" fill="#8A8A8A"/>
</svg>
