<svg width="36" height="36" viewBox="0 0 36 36" fill="none" xmlns="http://www.w3.org/2000/svg">
<g clip-path="url(#clip0_84_4415)">
<path d="M17.9633 35.9267C27.8842 35.9267 35.9267 27.8842 35.9267 17.9633C35.9267 8.04246 27.8842 0 17.9633 0C8.04246 0 0 8.04246 0 17.9633C0 27.8842 8.04246 35.9267 17.9633 35.9267Z" fill="#D9D9D9"/>
<path d="M19.3898 24.4883C12.5587 24.4883 8.66235 19.8052 8.5 12H11.9218C12.0342 17.7196 14.5568 20.1174 16.5549 20.6419V12.0125H19.7769V16.9454C21.7501 16.7331 23.8231 14.4852 24.5225 12.0125H27.7382C27.4793 13.2983 26.9574 14.5168 26.2052 15.5913C25.4531 16.6658 24.4869 17.5733 23.3673 18.2566C24.6155 18.8757 25.7182 19.7523 26.6029 20.8286C27.4876 21.9049 28.1342 23.1564 28.5 24.5008H24.9471C24.6205 23.3309 23.9556 22.2835 23.0357 21.4903C22.1159 20.6971 20.9821 20.1934 19.7769 20.0425V24.5008L19.3898 24.4883Z" fill="white"/>
</g>
<defs>
<clipPath id="clip0_84_4415">
<rect width="36" height="36" fill="white"/>
</clipPath>
</defs>
</svg>
