<svg width="24" height="25" viewBox="0 0 24 25" fill="none" xmlns="http://www.w3.org/2000/svg">
<g id="vuesax/outline/empty-wallet-tick">
<g id="empty-wallet-tick">
<path id="Vector" d="M17.74 23.2498H7.63C7.31 23.2498 7.03 23.0498 6.92 22.7598C6.81 22.4598 6.9 22.1297 7.14 21.9297C7.38 21.7297 7.59999 21.4698 7.75999 21.1898C8.07999 20.6798 8.24001 20.0998 8.24001 19.5098C8.24001 17.7198 6.78001 16.2598 4.99001 16.2598C4.25001 16.2598 3.55001 16.5097 2.96001 16.9797C2.74001 17.1597 2.43 17.1898 2.17 17.0698C1.91 16.9498 1.75 16.6798 1.75 16.3898V12.0198C1.75 9.52978 3.76999 7.50977 6.25999 7.50977H17.74C20.23 7.50977 22.25 9.52978 22.25 12.0198V13.4598C22.25 13.8698 21.91 14.2098 21.5 14.2098H19.48C19.13 14.2098 18.81 14.3398 18.58 14.5798L18.57 14.5898C18.29 14.8598 18.16 15.2297 18.19 15.6097C18.25 16.2697 18.88 16.7997 19.6 16.7997H21.5C21.91 16.7997 22.25 17.1397 22.25 17.5497V18.7397C22.25 21.2297 20.23 23.2498 17.74 23.2498ZM9.17999 21.7498H17.74C19.4 21.7498 20.75 20.3997 20.75 18.7397V18.2997H19.6C18.09 18.2997 16.81 17.1797 16.69 15.7397C16.61 14.9197 16.91 14.1098 17.51 13.5198C18.03 12.9898 18.73 12.6998 19.48 12.6998H20.75V12.0098C20.75 10.3498 19.4 8.99976 17.74 8.99976H6.25999C4.59999 8.99976 3.25 10.3498 3.25 12.0098V15.0898C3.81 14.8698 4.4 14.7498 5 14.7498C7.62 14.7498 9.75 16.8798 9.75 19.4998C9.75 20.2898 9.54999 21.0698 9.17999 21.7498Z" fill="#0D4587"/>
<path id="Vector_2" d="M2.5 13.66C2.09 13.66 1.75 13.32 1.75 12.91V8.34006C1.75 6.85006 2.69 5.50001 4.08 4.97001L12.02 1.97001C12.84 1.66001 13.75 1.77005 14.46 2.27005C15.18 2.77005 15.6 3.58005 15.6 4.45005V8.25003C15.6 8.66003 15.26 9.00003 14.85 9.00003C14.44 9.00003 14.1 8.66003 14.1 8.25003V4.45005C14.1 4.07005 13.92 3.72003 13.6 3.50003C13.28 3.28003 12.9 3.23003 12.54 3.37003L4.60001 6.37003C3.79001 6.68003 3.24001 7.47006 3.24001 8.34006V12.91C3.25001 13.33 2.91 13.66 2.5 13.66Z" fill="#0D4587"/>
<path id="Vector_3" d="M19.6005 18.3002C18.0905 18.3002 16.8105 17.1802 16.6905 15.7402C16.6105 14.9102 16.9105 14.1002 17.5105 13.5102C18.0205 12.9902 18.7205 12.7002 19.4705 12.7002H21.5505C22.5405 12.7302 23.3005 13.5102 23.3005 14.4702V16.5302C23.3005 17.4902 22.5405 18.2702 21.5805 18.3002H19.6005ZM21.5305 14.2002H19.4805C19.1305 14.2002 18.8105 14.3302 18.5805 14.5702C18.2905 14.8502 18.1505 15.2302 18.1905 15.6102C18.2505 16.2702 18.8805 16.8002 19.6005 16.8002H21.5605C21.6905 16.8002 21.8105 16.6802 21.8105 16.5302V14.4702C21.8105 14.3202 21.6905 14.2102 21.5305 14.2002Z" fill="#0D4587"/>
<path id="Vector_4" d="M14 13.25H7C6.59 13.25 6.25 12.91 6.25 12.5C6.25 12.09 6.59 11.75 7 11.75H14C14.41 11.75 14.75 12.09 14.75 12.5C14.75 12.91 14.41 13.25 14 13.25Z" fill="#0D4587"/>
<path id="Vector_5" d="M5 24.25C3.34 24.25 1.78 23.37 0.940002 21.94C0.490002 21.22 0.25 20.37 0.25 19.5C0.25 18.04 0.899999 16.69 2.03 15.79C2.87 15.12 3.93 14.75 5 14.75C7.62 14.75 9.75 16.88 9.75 19.5C9.75 20.37 9.51 21.22 9.06 21.95C8.82 22.37 8.49 22.75 8.11 23.07C7.28 23.83 6.17 24.25 5 24.25ZM5 16.25C4.26 16.25 3.56 16.5 2.97 16.97C2.2 17.58 1.75 18.51 1.75 19.5C1.75 20.09 1.91 20.67 2.22 21.17C2.81 22.17 3.85 22.75 5 22.75C5.79 22.75 6.55 22.46 7.13 21.94C7.39001 21.72 7.61 21.46 7.77 21.18C8.09 20.67 8.25 20.09 8.25 19.5C8.25 17.71 6.79 16.25 5 16.25Z" fill="#0D4587"/>
<path id="Vector_6" d="M4.4289 21.2396C4.2389 21.2396 4.0489 21.1696 3.8989 21.0196L2.90891 20.0296C2.61891 19.7396 2.61891 19.2595 2.90891 18.9695C3.19891 18.6795 3.6789 18.6795 3.9689 18.9695L4.4489 19.4496L6.04891 17.9695C6.34891 17.6895 6.8289 17.7096 7.1089 18.0096C7.3889 18.3096 7.36891 18.7896 7.06891 19.0696L4.93891 21.0396C4.7889 21.1696 4.6089 21.2396 4.4289 21.2396Z" fill="#0D4587"/>
</g>
</g>
</svg>
