<svg width="30" height="25" viewBox="0 0 30 25" fill="none" xmlns="http://www.w3.org/2000/svg">
<path d="M14.5749 4.6665C14.5831 4.66652 14.5919 4.66654 14.6014 4.66656L14.7032 4.66686C15.8845 4.671 21.8718 4.71233 23.4861 5.12566C24.4758 5.37845 25.255 6.12342 25.5195 7.06907C25.6651 7.58862 25.7666 8.27916 25.8373 8.98936L25.8511 9.13162C25.8622 9.25031 25.8725 9.36926 25.882 9.48779L25.893 9.62976C25.9875 10.8812 25.9986 12.0523 25.9998 12.3085L26 12.3431C26 12.3459 26 12.3505 26 12.3505V12.3699C26 12.3699 26 12.3746 26 12.3774L25.9998 12.412C25.9985 12.6779 25.9867 13.929 25.882 15.2328L25.8702 15.3752L25.8576 15.5177C25.7865 16.3016 25.6797 17.08 25.5195 17.6514C25.255 18.5971 24.4758 19.3422 23.4861 19.5948C21.818 20.0221 15.4805 20.052 14.6014 20.0541L14.5337 20.0542C14.5281 20.0542 14.5233 20.0543 14.5191 20.0543L14.4914 20.0543C14.4914 20.0543 14.4851 20.0543 14.4809 20.0543L14.3986 20.0541C13.9543 20.0531 12.116 20.0449 10.1908 19.9819L9.94463 19.9736C9.90356 19.9721 9.86247 19.9707 9.82139 19.9692L9.57497 19.9599L9.32911 19.95C7.73419 19.8833 6.21353 19.774 5.514 19.5948C4.52439 19.3422 3.74513 18.5971 3.48064 17.6514C3.3204 17.08 3.21358 16.3016 3.14237 15.5177L3.12981 15.3752L3.11801 15.2328C3.01708 13.9764 3.00243 12.7689 3.0003 12.4448L3.00005 12.3984C3.00003 12.3943 3.00001 12.3904 3 12.3869V12.3336C3.00001 12.3301 3.00003 12.3262 3.00005 12.322L3.0003 12.2757C3.00223 11.9821 3.01442 10.9641 3.09169 9.84135L3.10169 9.7005C3.10341 9.67696 3.10516 9.65337 3.10695 9.62976L3.11801 9.48779C3.12753 9.36926 3.13782 9.25031 3.14894 9.13162L3.16269 8.98936C3.23345 8.27916 3.33497 7.58862 3.48064 7.06907C3.74513 6.12342 4.52439 5.37845 5.514 5.12566C6.21353 4.94655 7.73419 4.83729 9.32911 4.77065L9.57497 4.76073L9.82139 4.75146C9.86247 4.74996 9.90356 4.7485 9.94463 4.74706L10.1908 4.73872C11.9931 4.6798 13.7193 4.66888 14.2968 4.66686L14.3986 4.66656C14.408 4.66654 14.4168 4.66652 14.425 4.6665H14.5749ZM12.2 9.06278V15.6577L18.1754 12.3604L12.2 9.06278Z" fill="#8A8A8A"/>
</svg>
