<svg width="24" height="24" viewBox="0 0 24 24" fill="none" xmlns="http://www.w3.org/2000/svg">
<path d="M9.78991 17.1208L8.18431 16.6901L8.83869 14.2464C7.85918 13.8851 6.94882 13.3587 6.14717 12.6899L4.35698 14.4809L3.18043 13.3043L4.97145 11.5141C3.96043 10.3033 3.28112 8.85069 3 7.2985L4.63636 7C5.26746 10.4939 8.324 13.1447 12 13.1447C15.6752 13.1447 18.7325 10.4939 19.3636 7L21 7.29767C20.7193 8.85007 20.0402 10.303 19.0294 11.5141L20.8196 13.3043L19.643 14.4809L17.8528 12.6899C17.0512 13.3587 16.1408 13.8851 15.1613 14.2464L15.8157 16.691L14.2101 17.1208L13.5549 14.6763C12.5258 14.8526 11.4742 14.8526 10.4451 14.6763L9.78991 17.1208Z" fill="#777777"/>
</svg>
